<?xml version="1.0" encoding="UTF-8"?>
<svg id="Layer_2" data-name="Layer 2" xmlns="http://www.w3.org/2000/svg" viewBox="0 0 813.53 600">
  <defs>
    <style>
      .cls-1 {
        opacity: .1;
      }

      .cls-2 {
        fill: #ebebeb;
      }

      .cls-3 {
        fill: #f0f0f0;
      }

      .cls-4 {
        fill: #e6e6e6;
      }

      .cls-5 {
        fill: #f5f5f5;
      }

      .cls-6 {
        fill: #eec1bb;
      }

      .cls-7, .cls-8, .cls-9, .cls-10, .cls-11, .cls-12, .cls-13, .cls-14, .cls-15 {
        fill: #fff;
      }

      .cls-16 {
        fill: #fafafa;
      }

      .cls-17 {
        fill: #ffc3bd;
      }

      .cls-18 {
        fill: #b97964;
      }

      .cls-19 {
        fill: #a24e3f;
      }

      .cls-20 {
        fill: #d4827d;
      }

      .cls-21 {
        fill: #e0e0e0;
      }

      .cls-22 {
        fill: #407bff;
      }

      .cls-23, .cls-24 {
        fill: #263238;
      }

      .cls-24, .cls-8, .cls-25 {
        opacity: .2;
      }

      .cls-26, .cls-14 {
        opacity: .3;
      }

      .cls-27, .cls-15 {
        opacity: .4;
      }

      .cls-28, .cls-10 {
        opacity: .5;
      }

      .cls-29, .cls-11 {
        opacity: .9;
      }

      .cls-30, .cls-13 {
        opacity: .7;
      }

      .cls-9 {
        opacity: .6;
      }

      .cls-12 {
        opacity: .8;
      }
    </style>
  </defs>
  <g id="Character_1" data-name="Character 1">
    <g>
      <g>
        <rect class="cls-2" x="678.13" y="558.97" width="53.89" height=".41"/>
        <rect class="cls-2" x="524.77" y="563.38" width="14.14" height=".41"/>
        <rect class="cls-2" x="645.27" y="543.86" width="31.23" height=".41"/>
        <rect class="cls-2" x="85.35" y="546.59" width="70.28" height=".41"/>
        <rect class="cls-2" x="170.12" y="546.59" width="10.3" height=".41"/>
        <rect class="cls-2" x="213.91" y="553.46" width="152.42" height=".41"/>
        <path class="cls-2" d="m385.64,460.21H71.45c-5.12,0-9.29-4.17-9.29-9.29V9.29c0-5.12,4.17-9.29,9.29-9.29h314.18c5.12,0,9.29,4.17,9.29,9.29v441.64c0,5.12-4.17,9.29-9.29,9.29ZM71.45.41c-4.9,0-8.88,3.98-8.88,8.88v441.64c0,4.9,3.98,8.88,8.88,8.88h314.18c4.9,0,8.88-3.98,8.88-8.88V9.29c0-4.9-3.98-8.88-8.88-8.88H71.45Z"/>
        <path class="cls-2" d="m737.57,460.21h-314.18c-5.12,0-9.29-4.17-9.29-9.29V9.29c0-5.12,4.17-9.29,9.29-9.29h314.18c5.12,0,9.29,4.17,9.29,9.29v441.64c0,5.12-4.17,9.29-9.29,9.29ZM423.38.41c-4.9,0-8.88,3.98-8.88,8.88v441.64c0,4.9,3.98,8.88,8.88,8.88h314.18c4.9,0,8.88-3.98,8.88-8.88V9.29c0-4.9-3.98-8.88-8.88-8.88h-314.18Z"/>
        <rect class="cls-2" y="532.78" width="813.53" height=".41"/>
      </g>
      <g>
        <g>
          <rect class="cls-2" x="475.03" y="64.62" width="203.03" height="216.22"/>
          <rect class="cls-5" x="487.24" y="76.82" width="178.63" height="191.82"/>
          <g>
            <polygon class="cls-16" points="557.35 268.64 611.05 268.64 661.45 76.82 607.76 76.82 557.35 268.64"/>
            <polygon class="cls-16" points="582.81 76.82 532.4 268.64 545.42 268.64 595.83 76.82 582.81 76.82"/>
          </g>
          <g>
            <polygon class="cls-5" points="680.64 74.79 472.46 74.79 468.07 64.54 685.04 64.54 680.64 74.79"/>
            <polygon class="cls-3" points="680.64 80.73 472.46 80.73 468.07 70.48 685.04 70.48 680.64 80.73"/>
            <polygon class="cls-4" points="680.64 86.67 472.46 86.67 468.07 76.42 685.04 76.42 680.64 86.67"/>
            <polygon class="cls-21" points="680.64 92.61 472.46 92.61 468.07 82.36 685.04 82.36 680.64 92.61"/>
            <rect class="cls-21" x="460.5" y="51.71" width="232.1" height="13.67"/>
            <path class="cls-21" d="m462.88,189.29h0c-1.3,0-2.36-1.06-2.36-2.36v-79.72c0-1.3,1.06-2.36,2.36-2.36h0c1.3,0,2.36,1.06,2.36,2.36v79.72c0,1.3-1.06,2.36-2.36,2.36Z"/>
            <rect class="cls-21" x="462.03" y="62.63" width="1.71" height="47.34"/>
          </g>
        </g>
        <g>
          <g>
            <rect class="cls-21" x="144.36" y="60.44" width="2.93" height="228.38"/>
            <rect class="cls-21" x="326.67" y="60.44" width="2.93" height="228.38"/>
          </g>
          <polygon class="cls-5" points="341.07 74.79 132.89 74.79 128.5 64.54 345.47 64.54 341.07 74.79"/>
          <polygon class="cls-5" points="341.07 88.87 132.89 88.87 128.5 78.62 345.47 78.62 341.07 88.87"/>
          <polygon class="cls-5" points="341.07 102.94 132.89 102.94 128.5 92.69 345.47 92.69 341.07 102.94"/>
          <polygon class="cls-5" points="341.07 117.01 132.89 117.01 128.5 106.76 345.47 106.76 341.07 117.01"/>
          <polygon class="cls-5" points="341.07 131.09 132.89 131.09 128.5 120.84 345.47 120.84 341.07 131.09"/>
          <polygon class="cls-5" points="341.07 145.16 132.89 145.16 128.5 134.91 345.47 134.91 341.07 145.16"/>
          <polygon class="cls-5" points="341.07 159.23 132.89 159.23 128.5 148.98 345.47 148.98 341.07 159.23"/>
          <polygon class="cls-5" points="341.07 173.31 132.89 173.31 128.5 163.06 345.47 163.06 341.07 173.31"/>
          <polygon class="cls-5" points="341.07 187.38 132.89 187.38 128.5 177.13 345.47 177.13 341.07 187.38"/>
          <polygon class="cls-5" points="341.07 201.45 132.89 201.45 128.5 191.2 345.47 191.2 341.07 201.45"/>
          <polygon class="cls-5" points="341.07 215.53 132.89 215.53 128.5 205.28 345.47 205.28 341.07 215.53"/>
          <polygon class="cls-5" points="341.07 229.6 132.89 229.6 128.5 219.35 345.47 219.35 341.07 229.6"/>
          <polygon class="cls-5" points="341.07 243.67 132.89 243.67 128.5 233.42 345.47 233.42 341.07 243.67"/>
          <polygon class="cls-5" points="341.07 257.75 132.89 257.75 128.5 247.5 345.47 247.5 341.07 257.75"/>
          <polygon class="cls-5" points="341.07 271.82 132.89 271.82 128.5 261.57 345.47 261.57 341.07 271.82"/>
          <polygon class="cls-5" points="341.07 285.89 132.89 285.89 128.5 275.64 345.47 275.64 341.07 285.89"/>
          <rect class="cls-21" x="128.5" y="285.89" width="216.97" height="5.86"/>
          <rect class="cls-21" x="120.93" y="51.71" width="232.1" height="13.67"/>
          <path class="cls-21" d="m123.31,189.29h0c-1.3,0-2.36-1.06-2.36-2.36v-79.72c0-1.3,1.06-2.36,2.36-2.36h0c1.3,0,2.36,1.06,2.36,2.36v79.72c0,1.3-1.06,2.36-2.36,2.36Z"/>
          <rect class="cls-21" x="122.46" y="62.63" width="1.71" height="47.34"/>
        </g>
      </g>
      <g>
        <g>
          <path class="cls-2" d="m145.32,435.12c-.2.22.9,1.75-3.56,1.08-10.98-1.65-30.1-6.1-35.42-17.4-7.6-16.13,15.97-10.24,15.15-18.49-.81-8.24-27.63-6.81-30.48-18.9-2.85-12.09,15.34-6.33,15.58-12.23.24-5.89-20.72-2.24-24.87-15.28s11.68-3.44,9.86-8.87c-1.82-5.42-19.55-29.96-9.9-32.81,9.65-2.85,25.9,22.33,32.17,25.9,6.27,3.57,11.84-16.99,19.32-8.31,7.47,8.68-4.38,39.04,5.15,44.93,7.1,4.39,5.1-7.7,14.47-5.44,12.73,3.06,8.45,48.01-7.46,65.81Z"/>
          <path class="cls-5" d="m111.43,369.25c4.32.36,7.51,1.24,9.49,1.95-3.87-5.67-6.65-8.57-6.75-8.68-.31-.32-.31-.83,0-1.15.32-.31.83-.31,1.15,0,.08.08,6.5,6.69,13.52,19.62,3.45-20.81-5.26-38.99-5.35-39.18-.15-.3-.02-.67.28-.82.3-.15.67-.02.82.28.1.2,9.4,19.6,5.18,41.44,1.12,2.14,2.25,4.43,3.37,6.89,3.23,7.11,6.61,16.21,9.28,27.19,1.85-3.35,6.1-12.32,6.48-24.83,0-.34.29-.6.63-.59.34.02.6.29.59.63-.44,14.49-5.99,24.39-7.28,26.5,3.53,15.23,5.65,33.98,4.13,56.06-.03.45-.42.79-.87.76-.03,0-.07,0-.1-.01-.4-.08-.68-.44-.65-.85,2.02-29.24-2.36-52.74-8.41-70.54-1.54-1.78-6.07-6.33-12.98-7.41-.31-.08-.56-.37-.51-.7.05-.33.36-.56.7-.51,5.46.87,9.46,3.7,11.84,5.88-4.47-12.36-9.66-21.76-13.87-28.2-1.36-.61-5.07-2.05-10.79-2.53-.33-.04-.59-.32-.56-.66.03-.34.32-.58.66-.56Z"/>
        </g>
        <g>
          <g>
            <path class="cls-21" d="m159.39,441.35c9.12.17,24.71-8.3,30.83-16.54,6.21-8.36-11.26-3.18-9.46-9.74,1.79-6.57,23.33-1.71,27.3-11.12,3.97-9.41-11.56-7.25-10.95-12.05.62-4.81,16.71-3.83,21.88-13.83,5.17-10-8.99-4.4-6.77-8.54,2.22-4.14,19.97-21.59,12.54-25.23-7.43-3.64-24.06,14.53-29.63,16.56-5.57,2.03-6.88-10.52-14.13-4.52-7.25,6-1.82,32.24-10.36,35.7-6.36,2.58-3.65-9.43-10.97-6.4-12.81,5.31-3.98,55.66-.27,55.73Z"/>
            <g class="cls-26">
              <path class="cls-21" d="m159.39,441.35c9.12.17,24.71-8.3,30.83-16.54,6.21-8.36-11.26-3.18-9.46-9.74,1.79-6.57,23.33-1.71,27.3-11.12,3.97-9.41-11.56-7.25-10.95-12.05.62-4.81,16.71-3.83,21.88-13.83,5.17-10-8.99-4.4-6.77-8.54,2.22-4.14,19.97-21.59,12.54-25.23-7.43-3.64-24.06,14.53-29.63,16.56-5.57,2.03-6.88-10.52-14.13-4.52-7.25,6-1.82,32.24-10.36,35.7-6.36,2.58-3.65-9.43-10.97-6.4-12.81,5.31-3.98,55.66-.27,55.73Z"/>
            </g>
          </g>
          <path class="cls-5" d="m162.41,430.4c-.13-.05-.25-.13-.32-.27-.21-.41-5.21-10.08-4.09-24.46.03-.34.31-.58.66-.56.34.03.59.32.56.66-.95,12.14,2.68,21.03,3.69,23.25,4.08-11.09,8.98-20.95,13.89-29.39-1.61-19.59,8.43-35.64,8.53-35.8.18-.28.56-.37.84-.19.28.18.37.56.19.84-.1.15-9.32,14.9-8.46,33.25,11.69-19.59,23.11-30.97,23.34-31.19.32-.31.84-.31,1.15.01.31.32.31.84-.01,1.15-.19.19-8.31,8.3-17.81,22.52,5.57-2.07,11.61-3.15,17.25-3.04.34,0,.6.28.6.62,0,.33-.28.6-.61.6h-.01c-6.04-.11-12.55,1.16-18.4,3.58-3.27,5.01-6.66,10.73-9.93,17.07,3.14-2.12,9.23-5.06,17.02-3,.33.09.52.42.43.75-.09.33-.42.53-.75.43-9.88-2.61-16.85,3.3-17.99,4.35-8.95,18.02-16.66,40.79-17.69,66.9-.02.44-.38.78-.81.78h-.03c-.45-.02-.8-.4-.78-.85.69-17.66,4.43-33.81,9.54-48.02Z"/>
        </g>
        <path class="cls-3" d="m133.73,530.47c-8.71-16.38-14.43-40.04-14.43-50.41,0-8.77,4.11-16.63,10.63-22.14h44.6c6.52,5.51,10.63,13.38,10.63,22.14,0,10.37-5.72,34.03-14.43,50.41h-37.01Z"/>
      </g>
      <ellipse id="_Path_" data-name="&amp;lt;Path&amp;gt;" class="cls-5" cx="398.92" cy="581.58" rx="315.47" ry="18.42"/>
      <g>
        <g>
          <path class="cls-22" d="m476.16,105.25h-39.02c-2.56,0-4.88,1.9-5.42,4.43l-.26,1.22c-1.33,6.19-7.01,10.83-13.25,10.83h-37.1c-6.24,0-11.1-4.64-11.35-10.83l-.05-1.22c-.1-2.54-2.09-4.43-4.65-4.43h-39.02c-13.01,0-24.49,10.55-25.63,23.56l-31.39,358.83c-1.14,13.01,8.49,23.56,21.5,23.56h150.13c13.01,0,24.49-10.55,25.63-23.56l31.39-358.83c1.14-13.01-8.49-23.56-21.5-23.56Z"/>
          <path class="cls-13" d="m476.16,105.25h-39.02c-2.56,0-4.88,1.9-5.42,4.43l-.26,1.22c-1.33,6.19-7.01,10.83-13.25,10.83h-37.1c-6.24,0-11.1-4.64-11.35-10.83l-.05-1.22c-.1-2.54-2.09-4.43-4.65-4.43h-39.02c-13.01,0-24.49,10.55-25.63,23.56l-31.39,358.83c-1.14,13.01,8.49,23.56,21.5,23.56h150.13c13.01,0,24.49-10.55,25.63-23.56l31.39-358.83c1.14-13.01-8.49-23.56-21.5-23.56Z"/>
        </g>
        <path class="cls-7" d="m460.95,270.29h-79.72c-2.89,0-5.03-2.34-4.78-5.24l6.01-68.64c.25-2.89,2.8-5.24,5.7-5.24h79.72c2.89,0,5.03,2.34,4.78,5.24l-6.01,68.64c-.25,2.89-2.8,5.24-5.7,5.24Z"/>
        <path class="cls-7" d="m434.4,484.93h-133.4c-7.18,0-12.49-5.82-11.87-13h0c.63-7.18,6.96-13,14.14-13h133.4c7.18,0,12.49,5.82,11.87,13h0c-.63,7.18-6.96,13-14.14,13Z"/>
        <g>
          <path class="cls-7" d="m445.06,172.3h-122.41c-4.03,0-7.02-3.27-6.66-7.3l1-11.41c.35-4.03,3.91-7.3,7.94-7.3h122.41c4.03,0,7.02,3.27,6.66,7.3l-1,11.41c-.35,4.03-3.91,7.3-7.94,7.3Z"/>
          <g>
            <path class="cls-7" d="m469.95,153.22c-.1,1.12-1.09,2.03-2.21,2.03s-1.95-.91-1.85-2.03c.1-1.12,1.09-2.03,2.21-2.03s1.95.91,1.85,2.03Z"/>
            <path class="cls-7" d="m469.41,159.3c-.1,1.12-1.09,2.03-2.21,2.03s-1.95-.91-1.85-2.03c.1-1.12,1.09-2.03,2.21-2.03s1.95.91,1.85,2.03Z"/>
            <path class="cls-7" d="m468.88,165.38c-.1,1.12-1.09,2.03-2.21,2.03s-1.95-.91-1.85-2.03c.1-1.12,1.09-2.03,2.21-2.03s1.95.91,1.85,2.03Z"/>
          </g>
        </g>
        <path class="cls-7" d="m451.04,383.55h-148.93c-2.89,0-5.03-2.34-4.78-5.24l6.85-78.35c.25-2.89,2.8-5.24,5.7-5.24h148.93c2.89,0,5.03,2.34,4.78,5.24l-6.85,78.35c-.25,2.89-2.8,5.24-5.7,5.24Z"/>
        <g>
          <path class="cls-7" d="m343.08,399.92h-46.36c-.71,0-1.23-.57-1.17-1.28h0c.06-.71.68-1.28,1.39-1.28h46.36c.71,0,1.23.57,1.17,1.28h0c-.06.71-.68,1.28-1.39,1.28Z"/>
          <path class="cls-7" d="m401.04,399.92h-49.78c-.71,0-1.23-.57-1.17-1.28h0c.06-.71.68-1.28,1.39-1.28h49.78c.71,0,1.23.57,1.17,1.28h0c-.06.71-.68,1.28-1.39,1.28Z"/>
          <path class="cls-7" d="m327.09,411.22h-31.37c-.71,0-1.23-.57-1.17-1.28h0c.06-.71.68-1.28,1.39-1.28h31.37c.71,0,1.23.57,1.17,1.28h0c-.06.71-.68,1.28-1.39,1.28Z"/>
          <path class="cls-7" d="m386.65,411.22h-51.38c-.71,0-1.23-.57-1.17-1.28h0c.06-.71.68-1.28,1.39-1.28h51.38c.71,0,1.23.57,1.17,1.28h0c-.06.71-.68,1.28-1.39,1.28Z"/>
          <path class="cls-7" d="m378.36,422.51h-83.62c-.71,0-1.23-.57-1.17-1.28h0c.06-.71.68-1.28,1.39-1.28h83.62c.71,0,1.23.57,1.17,1.28h0c-.06.71-.68,1.28-1.39,1.28Z"/>
          <path class="cls-7" d="m392.06,422.51h-5.52c-.71,0-1.23-.57-1.17-1.28h0c.06-.71.68-1.28,1.39-1.28h5.52c.71,0,1.23.57,1.17,1.28h0c-.06.71-.68,1.28-1.39,1.28Z"/>
          <path class="cls-7" d="m332.79,433.81h-39.04c-.71,0-1.23-.57-1.17-1.28h0c.06-.71.68-1.28,1.39-1.28h39.04c.71,0,1.23.57,1.17,1.28h0c-.06.71-.68,1.28-1.39,1.28Z"/>
          <path class="cls-7" d="m389.58,433.81h-48.61c-.71,0-1.23-.57-1.17-1.28h0c.06-.71.68-1.28,1.39-1.28h48.61c.71,0,1.23.57,1.17,1.28h0c-.06.71-.68,1.28-1.39,1.28Z"/>
          <path class="cls-7" d="m340.83,445.11h-48.07c-.71,0-1.23-.57-1.17-1.28h0c.06-.71.68-1.28,1.39-1.28h48.07c.71,0,1.23.57,1.17,1.28h0c-.06.71-.68,1.28-1.39,1.28Z"/>
          <path class="cls-7" d="m387.74,445.11h-38.72c-.71,0-1.23-.57-1.17-1.28h0c.06-.71.68-1.28,1.39-1.28h38.72c.71,0,1.23.57,1.17,1.28h0c-.06.71-.68,1.28-1.39,1.28Z"/>
        </g>
        <g>
          <path class="cls-22" d="m459.05,263.8c-.65.67-1.69.74-2.31.15l-66.59-63.55c-.62-.59-.6-1.62.06-2.3h0c.65-.67,1.69-.74,2.31-.15l66.59,63.55c.62.59.6,1.62-.06,2.3h0Z"/>
          <path class="cls-22" d="m384.26,263.77h0c-.54-.67-.38-1.7.35-2.3l33.97-27.78c.73-.59,1.75-.53,2.28.15h0c.54.67.38,1.7-.35,2.3l-33.97,27.78c-.73.59-1.75.53-2.28-.15Z"/>
          <path class="cls-22" d="m428.16,227.87h0c-.54-.67-.38-1.7.35-2.3l34.03-27.83c.73-.59,1.75-.53,2.28.15h0c.54.67.38,1.7-.35,2.3l-34.03,27.83c-.73.59-1.75.53-2.28-.15Z"/>
          <g class="cls-30">
            <path class="cls-7" d="m459.05,263.8c-.65.67-1.69.74-2.31.15l-66.59-63.55c-.62-.59-.6-1.62.06-2.3h0c.65-.67,1.69-.74,2.31-.15l66.59,63.55c.62.59.6,1.62-.06,2.3h0Z"/>
          </g>
          <g class="cls-30">
            <path class="cls-7" d="m384.26,263.77h0c-.54-.67-.38-1.7.35-2.3l33.97-27.78c.73-.59,1.75-.53,2.28.15h0c.54.67.38,1.7-.35,2.3l-33.97,27.78c-.73.59-1.75.53-2.28-.15Z"/>
          </g>
          <g class="cls-30">
            <path class="cls-7" d="m428.16,227.87h0c-.54-.67-.38-1.7.35-2.3l34.03-27.83c.73-.59,1.75-.53,2.28.15h0c.54.67.38,1.7-.35,2.3l-34.03,27.83c-.73.59-1.75.53-2.28-.15Z"/>
          </g>
        </g>
      </g>
      <g>
        <path class="cls-22" d="m269.67,97.45h-21.08c-4.27,0-7.74,3.46-7.74,7.74v21.08c0,4.27,3.46,7.74,7.74,7.74h21.08c4.27,0,7.74-3.46,7.74-7.74v-21.08c0-4.27-3.46-7.74-7.74-7.74Zm-10.54,7.48c3.18,0,4.89,2.58,4.89,5.76s-1.71,5.76-4.89,5.76-4.89-2.58-4.89-5.76,1.71-5.76,4.89-5.76Zm12.72,21.59h-25.44c-.21,0-.4-.09-.54-.23l1.63-4.45c1.05-2.87,3.78-4.77,6.83-4.77h9.61c3.05,0,5.78,1.91,6.83,4.77l1.63,4.45c-.14.14-.33.23-.54.23Z"/>
        <path class="cls-13" d="m269.67,97.45h-21.08c-4.27,0-7.74,3.46-7.74,7.74v21.08c0,4.27,3.46,7.74,7.74,7.74h21.08c4.27,0,7.74-3.46,7.74-7.74v-21.08c0-4.27-3.46-7.74-7.74-7.74Zm-10.54,7.48c3.18,0,4.89,2.58,4.89,5.76s-1.71,5.76-4.89,5.76-4.89-2.58-4.89-5.76,1.71-5.76,4.89-5.76Zm12.72,21.59h-25.44c-.21,0-.4-.09-.54-.23l1.63-4.45c1.05-2.87,3.78-4.77,6.83-4.77h9.61c3.05,0,5.78,1.91,6.83,4.77l1.63,4.45c-.14.14-.33.23-.54.23Z"/>
      </g>
      <g>
        <g>
          <path class="cls-22" d="m194.69,184.13h-16.01c-5.76,0-10.42,4.67-10.42,10.42v16.01c0,5.76,4.67,10.42,10.42,10.42h16.01c5.76,0,10.42-4.67,10.42-10.42v-16.01c0-5.76-4.67-10.42-10.42-10.42Zm-8.01,27.17s-6.58-7.16-6.58-10.79,2.95-6.58,6.58-6.58,6.58,2.95,6.58,6.58-6.58,10.79-6.58,10.79Z"/>
          <path class="cls-22" d="m186.69,197.5c-1.66,0-3,1.34-3,3s1.34,3,3,3,3-1.34,3-3-1.34-3-3-3Z"/>
        </g>
        <g class="cls-30">
          <path class="cls-7" d="m194.69,184.13h-16.01c-5.76,0-10.42,4.67-10.42,10.42v16.01c0,5.76,4.67,10.42,10.42,10.42h16.01c5.76,0,10.42-4.67,10.42-10.42v-16.01c0-5.76-4.67-10.42-10.42-10.42Zm-8.01,27.17s-6.58-7.16-6.58-10.79,2.95-6.58,6.58-6.58,6.58,2.95,6.58,6.58-6.58,10.79-6.58,10.79Z"/>
          <path class="cls-7" d="m186.69,197.5c-1.66,0-3,1.34-3,3s1.34,3,3,3,3-1.34,3-3-1.34-3-3-3Z"/>
        </g>
      </g>
      <g>
        <g>
          <polygon class="cls-22" points="546.2 138.76 556.93 131.82 546.2 124.87 546.2 138.76"/>
          <path class="cls-22" d="m560.02,112.89h-20.43c-4.81,0-8.71,3.9-8.71,8.71v20.43c0,4.81,3.9,8.71,8.71,8.71h20.43c4.81,0,8.71-3.9,8.71-8.71v-20.43c0-4.81-3.9-8.71-8.71-8.71Zm-10.21,32.53c-7.52,0-13.61-6.09-13.61-13.61,0-7.52,6.09-13.61,13.61-13.61s13.61,6.09,13.61,13.61c0,7.52-6.09,13.61-13.61,13.61Z"/>
        </g>
        <g class="cls-30">
          <polygon class="cls-7" points="546.2 138.76 556.93 131.82 546.2 124.87 546.2 138.76"/>
          <path class="cls-7" d="m560.02,112.89h-20.43c-4.81,0-8.71,3.9-8.71,8.71v20.43c0,4.81,3.9,8.71,8.71,8.71h20.43c4.81,0,8.71-3.9,8.71-8.71v-20.43c0-4.81-3.9-8.71-8.71-8.71Zm-10.21,32.53c-7.52,0-13.61-6.09-13.61-13.61,0-7.52,6.09-13.61,13.61-13.61s13.61,6.09,13.61,13.61c0,7.52-6.09,13.61-13.61,13.61Z"/>
        </g>
      </g>
      <g>
        <path class="cls-22" d="m580.08,191.28c0-.42-.02-.84-.06-1.25l2.46-1.36c-.18-1.18-.5-2.32-.91-3.41l-2.8.05c-.36-.76-.78-1.49-1.26-2.17l1.44-2.41c-.74-.92-1.58-1.75-2.49-2.49l-2.41,1.44c-.68-.48-1.41-.9-2.17-1.26l.05-2.8c-1.09-.42-2.22-.73-3.41-.91l-1.36,2.46c-.41-.04-.83-.06-1.25-.06s-.84.02-1.25.06l-1.36-2.46c-1.18.18-2.32.5-3.41.91l.05,2.8c-.76.36-1.49.78-2.17,1.26l-2.41-1.44c-.92.74-1.75,1.58-2.49,2.49l1.44,2.41c-.48.68-.9,1.41-1.26,2.17l-2.8-.05c-.42,1.09-.73,2.22-.91,3.41l2.46,1.36c-.04.41-.06.83-.06,1.25s.02.84.06,1.25l-2.46,1.36c.18,1.18.5,2.32.91,3.41l2.8-.05c.36.76.78,1.49,1.26,2.17l-1.44,2.41c.74.92,1.58,1.75,2.49,2.49l2.41-1.44c.68.48,1.41.9,2.17,1.26l-.05,2.8c1.09.42,2.22.73,3.41.91l1.36-2.46c.41.04.83.06,1.25.06s.84-.02,1.25-.06l1.36,2.46c1.18-.18,2.32-.5,3.41-.91l-.05-2.8c.76-.36,1.49-.78,2.17-1.26l2.41,1.44c.92-.74,1.75-1.58,2.49-2.49l-1.44-2.41c.48-.68.9-1.41,1.26-2.17l2.8.05c.42-1.09.73-2.22.91-3.41l-2.46-1.36c.04-.41.06-.83.06-1.25Zm-14.18,9.63c-5.32,0-9.63-4.31-9.63-9.63s4.31-9.63,9.63-9.63,9.63,4.31,9.63,9.63-4.31,9.63-9.63,9.63Z"/>
        <path class="cls-13" d="m580.08,191.28c0-.42-.02-.84-.06-1.25l2.46-1.36c-.18-1.18-.5-2.32-.91-3.41l-2.8.05c-.36-.76-.78-1.49-1.26-2.17l1.44-2.41c-.74-.92-1.58-1.75-2.49-2.49l-2.41,1.44c-.68-.48-1.41-.9-2.17-1.26l.05-2.8c-1.09-.42-2.22-.73-3.41-.91l-1.36,2.46c-.41-.04-.83-.06-1.25-.06s-.84.02-1.25.06l-1.36-2.46c-1.18.18-2.32.5-3.41.91l.05,2.8c-.76.36-1.49.78-2.17,1.26l-2.41-1.44c-.92.74-1.75,1.58-2.49,2.49l1.44,2.41c-.48.68-.9,1.41-1.26,2.17l-2.8-.05c-.42,1.09-.73,2.22-.91,3.41l2.46,1.36c-.04.41-.06.83-.06,1.25s.02.84.06,1.25l-2.46,1.36c.18,1.18.5,2.32.91,3.41l2.8-.05c.36.76.78,1.49,1.26,2.17l-1.44,2.41c.74.92,1.58,1.75,2.49,2.49l2.41-1.44c.68.48,1.41.9,2.17,1.26l-.05,2.8c1.09.42,2.22.73,3.41.91l1.36-2.46c.41.04.83.06,1.25.06s.84-.02,1.25-.06l1.36,2.46c1.18-.18,2.32-.5,3.41-.91l-.05-2.8c.76-.36,1.49-.78,2.17-1.26l2.41,1.44c.92-.74,1.75-1.58,2.49-2.49l-1.44-2.41c.48-.68.9-1.41,1.26-2.17l2.8.05c.42-1.09.73-2.22.91-3.41l-2.46-1.36c.04-.41.06-.83.06-1.25Zm-14.18,9.63c-5.32,0-9.63-4.31-9.63-9.63s4.31-9.63,9.63-9.63,9.63,4.31,9.63,9.63-4.31,9.63-9.63,9.63Z"/>
      </g>
      <g>
        <path class="cls-22" d="m543.01,239.65c0-.63-.03-1.26-.09-1.87l3.67-2.04c-.28-1.77-.74-3.47-1.37-5.09l-4.2.07c-.53-1.14-1.16-2.23-1.88-3.25l2.16-3.6c-1.11-1.37-2.36-2.62-3.73-3.73l-3.6,2.16c-1.02-.72-2.1-1.35-3.25-1.88l.07-4.2c-1.62-.62-3.33-1.09-5.09-1.37l-2.04,3.67c-.62-.05-1.24-.09-1.87-.09s-1.26.03-1.87.09l-2.04-3.67c-1.77.28-3.47.74-5.09,1.37l.07,4.2c-1.14.53-2.23,1.16-3.25,1.88l-3.6-2.16c-1.37,1.11-2.62,2.36-3.73,3.73l2.16,3.6c-.72,1.02-1.35,2.1-1.88,3.25l-4.2-.07c-.62,1.62-1.09,3.33-1.37,5.09l3.67,2.04c-.05.62-.09,1.24-.09,1.87s.03,1.26.09,1.87l-3.67,2.04c.28,1.77.74,3.47,1.37,5.09l4.2-.07c.53,1.14,1.16,2.23,1.88,3.25l-2.16,3.6c1.11,1.37,2.36,2.62,3.73,3.73l3.6-2.16c1.02.72,2.1,1.35,3.25,1.88l-.07,4.2c1.62.62,3.33,1.09,5.09,1.37l2.04-3.67c.62.05,1.24.09,1.87.09s1.26-.03,1.87-.09l2.04,3.67c1.77-.28,3.47-.74,5.09-1.37l-.07-4.2c1.14-.53,2.23-1.16,3.25-1.88l3.6,2.16c1.37-1.11,2.62-2.36,3.73-3.73l-2.16-3.6c.72-1.02,1.35-2.1,1.88-3.25l4.2.07c.62-1.62,1.09-3.33,1.37-5.09l-3.67-2.04c.05-.62.09-1.24.09-1.87Zm-21.21,8.36c-4.62,0-8.36-3.74-8.36-8.36s3.74-8.36,8.36-8.36,8.36,3.74,8.36,8.36-3.74,8.36-8.36,8.36Z"/>
        <path class="cls-13" d="m543.01,239.65c0-.63-.03-1.26-.09-1.87l3.67-2.04c-.28-1.77-.74-3.47-1.37-5.09l-4.2.07c-.53-1.14-1.16-2.23-1.88-3.25l2.16-3.6c-1.11-1.37-2.36-2.62-3.73-3.73l-3.6,2.16c-1.02-.72-2.1-1.35-3.25-1.88l.07-4.2c-1.62-.62-3.33-1.09-5.09-1.37l-2.04,3.67c-.62-.05-1.24-.09-1.87-.09s-1.26.03-1.87.09l-2.04-3.67c-1.77.28-3.47.74-5.09,1.37l.07,4.2c-1.14.53-2.23,1.16-3.25,1.88l-3.6-2.16c-1.37,1.11-2.62,2.36-3.73,3.73l2.16,3.6c-.72,1.02-1.35,2.1-1.88,3.25l-4.2-.07c-.62,1.62-1.09,3.33-1.37,5.09l3.67,2.04c-.05.62-.09,1.24-.09,1.87s.03,1.26.09,1.87l-3.67,2.04c.28,1.77.74,3.47,1.37,5.09l4.2-.07c.53,1.14,1.16,2.23,1.88,3.25l-2.16,3.6c1.11,1.37,2.36,2.62,3.73,3.73l3.6-2.16c1.02.72,2.1,1.35,3.25,1.88l-.07,4.2c1.62.62,3.33,1.09,5.09,1.37l2.04-3.67c.62.05,1.24.09,1.87.09s1.26-.03,1.87-.09l2.04,3.67c1.77-.28,3.47-.74,5.09-1.37l-.07-4.2c1.14-.53,2.23-1.16,3.25-1.88l3.6,2.16c1.37-1.11,2.62-2.36,3.73-3.73l-2.16-3.6c.72-1.02,1.35-2.1,1.88-3.25l4.2.07c.62-1.62,1.09-3.33,1.37-5.09l-3.67-2.04c.05-.62.09-1.24.09-1.87Zm-21.21,8.36c-4.62,0-8.36-3.74-8.36-8.36s3.74-8.36,8.36-8.36,8.36,3.74,8.36,8.36-3.74,8.36-8.36,8.36Z"/>
      </g>
      <g>
        <path class="cls-22" d="m483.19,145.31v8.52l-8.11,4.28c-1.41.74-1.41,2.76,0,3.5l8.11,4.28v8.52c0,1.9,1.54,3.44,3.44,3.44h29.1c1.9,0,3.44-1.54,3.44-3.44v-29.1c0-1.9-1.54-3.44-3.44-3.44h-29.1c-1.9,0-3.44,1.54-3.44,3.44Z"/>
        <g class="cls-29">
          <path class="cls-7" d="m493.2,154.19h16.53c1.12,0,2.03-.91,2.03-2.03s-.91-2.03-2.03-2.03h-16.53c-1.12,0-2.03.91-2.03,2.03s.91,2.03,2.03,2.03Z"/>
          <path class="cls-7" d="m509.74,157.83h-16.53c-1.12,0-2.03.91-2.03,2.03s.91,2.03,2.03,2.03h16.53c1.12,0,2.03-.91,2.03-2.03s-.91-2.03-2.03-2.03Z"/>
          <path class="cls-7" d="m509.74,165.53h-16.53c-1.12,0-2.03.91-2.03,2.03s.91,2.03,2.03,2.03h16.53c1.12,0,2.03-.91,2.03-2.03s-.91-2.03-2.03-2.03Z"/>
        </g>
      </g>
      <g>
        <path class="cls-22" d="m318.74,131.93h6.95l3.58,6.79c1.04,1.97,3.85,1.97,4.89,0l3.58-6.79h6.95c2.77,0,5.01-2.25,5.01-5.01v-25.96c0-2.77-2.25-5.01-5.01-5.01h-25.96c-2.77,0-5.01,2.25-5.01,5.01v25.96c0,2.77,2.25,5.01,5.01,5.01Z"/>
        <polygon class="cls-11" points="331.73 103.7 323.71 108.39 323.71 122.09 329.68 122.09 329.68 112.89 333.79 112.89 333.79 122.09 339.75 122.09 339.75 108.39 331.73 103.7"/>
      </g>
      <g>
        <path class="cls-22" d="m396.68,504.13h-6.26l-3.99-7.57c-.86-1.63-3.2-1.63-4.06,0l-3.99,7.57h-6.26c-3.15,0-5.71,2.56-5.71,5.71v24.57c0,3.15,2.56,5.71,5.71,5.71h24.57c3.15,0,5.71-2.56,5.71-5.71v-24.57c0-3.15-2.56-5.71-5.71-5.71Z"/>
        <path class="cls-11" d="m387.87,513.51c-3.47-3.47-9.1-3.47-12.57,0-3.47,3.47-3.47,9.1,0,12.57,3.07,3.07,7.85,3.41,11.31,1.03.07.4.25.78.55,1.08l5.52,5.52c.78.78,2.04.78,2.82,0,.78-.78.78-2.04,0-2.82l-5.52-5.52c-.31-.31-.69-.49-1.08-.55,2.38-3.46,2.04-8.24-1.03-11.31Zm-1.88,10.69c-2.43,2.43-6.38,2.43-8.81,0-2.43-2.43-2.43-6.38,0-8.81,2.43-2.43,6.38-2.43,8.81,0s2.43,6.38,0,8.81Z"/>
      </g>
      <path class="cls-6" d="m659.43,340.51s-13.27,32.87-26.24,36.42c-12.98,3.56-32.56.67-32.56.67l-6.05,1.65-5.93-.88c-.07-.01-.14-.02-.2-.02l-6.7-.15c-1.14-.03-1.77-1.14-1.14-2.01l2.41-3.32c.19-.26.47-.46.79-.56l6.37-2.05c.25-.08.52-.1.78-.06l9.74,1.55s27.09-4.44,29.85-6.95c2.76-2.51,10.92-28.79,10.92-28.79l17.98,4.51Z"/>
      <path class="cls-1" d="m601.31,371.63c-.4.07-.63.1-.63.1l-9.74-1.55c-.26-.04-.52-.02-.78.06l-6.37,2.05c-.32.1-.6.3-.79.56l-2.41,3.32c-.63.87,0,1.99,1.14,2.01l6.7.15c.07,0,.14,0,.2.02l3.99.59c2.96-1.29,5.9-3.98,8.68-7.33Z"/>
      <path class="cls-22" d="m667.44,307.96c-9.63-3.16-23.19,4.08-28.38,34.41l20,5.84s22.15-35.73,8.38-40.25Z"/>
      <g>
        <path class="cls-23" d="m611.4,268.32c.01,1,.54,1.8,1.19,1.79.65,0,1.21-.86,1.18-1.83-.04-.97-.54-1.8-1.19-1.78-.65.02-1.18.83-1.17,1.82Z"/>
        <path class="cls-20" d="m615.35,269.31l-4.73,7.83s1.64,1.85,5.19.49l-.45-8.31Z"/>
        <path class="cls-23" d="m616.24,262.08c-.12.13-.29.19-.47.17-1.3-.23-2.63.19-3.57,1.11-.19.21-.51.24-.73.05-.21-.19-.23-.52-.05-.74,1.17-1.2,2.85-1.74,4.49-1.46.29.04.49.3.45.59h0c-.02.1-.06.2-.12.27Z"/>
        <path class="cls-6" d="m649.68,261.22c.74,13.23,1.34,18.82-4.5,26.34-9.33,8.06-25.21,9.34-29.89-3.41-4.21-11.47-4.72-31.12,7.53-37.94,8.73-4.85,19.74-1.71,24.59,7.01,1.36,2.45,2.14,5.19,2.26,7.99Z"/>
        <polygon class="cls-6" points="631.25 290.18 634.6 309.77 650.94 305.99 645.22 285.99 631.25 290.18"/>
        <path class="cls-23" d="m619.48,262.2c.83-8.6-2.12,1.33-6.1-10.01-3.98-11.34,14.79-20.56,17.79-18.44,3,2.11,1.28,5.36,11.21,7.19,9.93,1.83,9.51,11.47,9.51,11.47,0,0,5.71,2.65,3.68,14.92-2.03,12.27-9.78,21.55-9.78,21.55,0,0-3.76-3.87-9.7-.3,0,0-2.92-1.64-5.8-5.94-2.68-4-3.5-7.8-7.17-8.13-7.69-.69-3.9-9.49-3.63-12.31Z"/>
        <path class="cls-23" d="m650.81,253.92s8.1-4.98,4.52-10.21-1.86,5.74-4.52,10.21Z"/>
        <path class="cls-17" d="m621.82,267.19c-1.81,2.01-2.74,4.67-2.58,7.37.23,3.58,3.74,4.22,6.51,2.26,2.51-1.77,5.38-5.76,3.79-8.91-1.6-3.14-5.47-3.16-7.71-.73Z"/>
        <path class="cls-1" d="m631.56,292.02l1.33,7.78c-.09-7.11,3.67-10.63,3.67-10.63-3.82.57-5,2.85-5,2.85Z"/>
      </g>
      <g>
        <rect class="cls-22" x="512.03" y="342.6" width="4.67" height="27.55"/>
        <rect class="cls-13" x="512.03" y="342.6" width="4.67" height="27.55"/>
      </g>
      <g>
        <path class="cls-22" d="m484.61,287.9h-11.63c-4.36,0-7.89,3.53-7.89,7.89v53.89c0,4.36,3.53,7.89,7.89,7.89h11.63v-69.67Z"/>
        <g>
          <rect class="cls-22" x="469.16" y="287.9" width="94.49" height="69.67" rx="4.85" ry="4.85"/>
          <rect class="cls-10" x="469.16" y="287.9" width="94.49" height="69.67" rx="4.85" ry="4.85"/>
        </g>
        <rect class="cls-23" x="472.41" y="291.15" width="87.98" height="63.16" rx="4.64" ry="4.64"/>
      </g>
      <path class="cls-22" d="m497.38,381.69c0-9.39,7.61-16.99,16.99-16.99s16.99,7.61,16.99,16.99h-33.99Z"/>
      <g>
        <polygon class="cls-22" points="537.49 375.89 503.5 375.89 503.5 381.42 571.48 381.42 571.48 379.15 537.49 375.89"/>
        <polygon class="cls-12" points="537.49 375.89 503.5 375.89 503.5 381.42 571.48 381.42 571.48 379.15 537.49 375.89"/>
        <polygon class="cls-22" points="537.49 381.42 503.5 381.42 503.5 375.89 537.49 379.15 537.49 381.42"/>
        <polygon class="cls-9" points="537.49 381.42 503.5 381.42 503.5 375.89 537.49 379.15 537.49 381.42"/>
      </g>
      <g>
        <path class="cls-23" d="m612.43,571.31h-70.12c-5.88,0-10.65-4.77-10.65-10.65v-161.2c0-5.88,4.77-10.65,10.65-10.65h70.12c1.57,0,2.85,1.27,2.85,2.85h0c0,1.57-1.27,2.85-2.85,2.85h-70.12c-2.74,0-4.96,2.22-4.96,4.96v161.2c0,2.74,2.22,4.96,4.96,4.96h70.12c1.57,0,2.85,1.27,2.85,2.85h0c0,1.57-1.27,2.85-2.85,2.85Z"/>
        <g class="cls-28">
          <path class="cls-7" d="m612.43,571.31h-70.12c-5.88,0-10.65-4.77-10.65-10.65v-161.2c0-5.88,4.77-10.65,10.65-10.65h70.12c1.57,0,2.85,1.27,2.85,2.85h0c0,1.57-1.27,2.85-2.85,2.85h-70.12c-2.74,0-4.96,2.22-4.96,4.96v161.2c0,2.74,2.22,4.96,4.96,4.96h70.12c1.57,0,2.85,1.27,2.85,2.85h0c0,1.57-1.27,2.85-2.85,2.85Z"/>
        </g>
      </g>
      <g>
        <rect class="cls-22" x="442.47" y="381.42" width="99.55" height="8.34"/>
        <rect class="cls-8" x="442.47" y="381.42" width="99.55" height="8.34"/>
        <rect class="cls-22" x="537.49" y="381.42" width="84.91" height="8.34"/>
        <rect class="cls-10" x="537.49" y="381.42" width="84.91" height="8.34"/>
      </g>
      <g>
        <g>
          <polygon class="cls-6" points="592.62 512.17 597.33 559.7 586.06 559.7 574.8 513.4 592.62 512.17"/>
          <path class="cls-23" d="m585.01,556.6l14.37.25c.54,0,1,.39,1.11.92l2.4,11.73c.22,1.04-.44,2.06-1.48,2.28-.13.03-.27.04-.41.04-5.18-.18-9.78-.54-16.23-.64-7.61-.13-5.69.82-14.64.79-5.39-.02-6.27-6.17-3.98-6.43,10.48-1.14,11.62-4.28,15.72-7.95.89-.7,2.01-1.06,3.14-.99Z"/>
          <polygon class="cls-1" points="596.1 547.29 592.62 512.17 574.8 513.4 583.04 547.29 596.1 547.29"/>
        </g>
        <path class="cls-23" d="m669.72,402.55l-46.19,1.66s-62.15,21.72-63.89,38.5c-1.79,17.21,19.11,96.3,19.11,96.3h18.56s-5.12-58.04-7.08-75.81c-1.97-17.77,64.74-11.88,76.32-27.04,10.66-13.96,3.17-33.6,3.17-33.6Z"/>
        <path class="cls-25" d="m669.72,402.55l-46.19,1.66s-62.15,21.72-63.89,38.5c-1.79,17.21,19.11,96.3,19.11,96.3h18.56s-5.12-58.04-7.08-75.81c-1.97-17.77,64.74-11.88,76.32-27.04,10.66-13.96,3.17-33.6,3.17-33.6Z"/>
        <polygon class="cls-22" points="600.47 536.34 600.88 542.9 577.94 542.9 575.68 536.34 600.47 536.34"/>
      </g>
      <g>
        <g>
          <polygon class="cls-6" points="549.66 514.42 550.89 559.7 539.83 559.7 533.27 514.42 549.66 514.42"/>
          <path class="cls-23" d="m538.29,556.6l14.37.25c.54,0,1,.39,1.11.92l2.4,11.73c.22,1.04-.44,2.06-1.48,2.28-.13.03-.27.04-.41.04-5.18-.18-9.78-.54-16.23-.64-7.61-.13-5.7.82-14.64.79-5.39-.02-6.27-6.17-3.98-6.43,10.48-1.14,11.62-4.28,15.72-7.95.89-.7,2.01-1.06,3.14-.99Z"/>
          <path class="cls-1" d="m550.55,547.26l-.89-32.83h-16.39l4.76,32.87c3.56.01,8.48,0,12.52-.03Z"/>
        </g>
        <path class="cls-23" d="m649.65,406.38s3.83,35.1-31.89,36.74c-35.72,1.64-63.59,5.74-64.41,18.44-.82,12.7,0,77.45,0,77.45h-19.41s-7.55-40.93-10.5-66.31c-2.86-24.65-8.08-42.53,17.21-50.88,26.89-8.88,74.7-17.08,74.7-17.08l34.42-2.17-.12,3.82Z"/>
        <polygon class="cls-22" points="556.22 536.34 554.99 542.9 533.68 542.9 531.43 536.34 556.22 536.34"/>
      </g>
      <g>
        <path class="cls-22" d="m657.4,305.65s0-7.92-16-7.01c-16.98.97-13.78,8.56-13.78,8.56l29.78-1.56Z"/>
        <path class="cls-26" d="m657.4,305.65s0-7.92-16-7.01c-16.98.97-13.78,8.56-13.78,8.56l29.78-1.56Z"/>
      </g>
      <path class="cls-22" d="m672.24,341.11c-1.07,15.63-.7,62.67-.7,62.67,0,0-34.12,2.24-60.98,1.37l-3.11-90.49c0-3.22,2-6.15,5.11-7.36,7.58-2.95,25.38-6.29,53.22-2.63,9.6,1.26,7.73,17.95,6.47,36.44Z"/>
      <path class="cls-6" d="m612.93,340.51s-13.27,32.87-26.24,36.42c-12.98,3.56-32.56.67-32.56.67l-6.05,1.65-5.93-.88c-.07-.01-.14-.02-.2-.02l-6.7-.15c-1.14-.03-1.77-1.14-1.14-2.01l2.41-3.32c.19-.26.47-.46.79-.56l6.37-2.05c.25-.08.52-.1.78-.06l9.74,1.55s27.09-4.44,29.85-6.95c2.76-2.51,10.92-28.79,10.92-28.79l17.98,4.51Z"/>
      <path class="cls-1" d="m612.58,325.22s-2.05,2.45-4.57,6l.9,26.19c9.97-4.4,13.93-30.08,13.93-30.08l-6.47-4.59-3.78,2.49Z"/>
      <path class="cls-22" d="m620.93,307.96c-9.63-3.16-23.19,4.08-28.38,34.41l20,5.84s22.15-35.73,8.38-40.25Z"/>
      <g>
        <g>
          <rect class="cls-23" x="618.62" y="460.16" width="15.05" height="44.11"/>
          <rect class="cls-9" x="618.62" y="460.16" width="15.05" height="44.11"/>
          <polygon class="cls-23" points="636.01 544.24 636.01 488.19 616.29 488.19 616.29 544.24 571.39 550.47 571.39 556.7 626.15 552.02 680.9 556.7 680.9 550.47 636.01 544.24"/>
          <g>
            <circle class="cls-22" cx="570.74" cy="566.04" r="5.94"/>
            <circle class="cls-22" cx="680.9" cy="566.04" r="5.94"/>
          </g>
          <circle class="cls-22" cx="626.15" cy="566.04" r="5.94"/>
          <rect class="cls-26" x="618.62" y="460.16" width="15.05" height="10.9"/>
        </g>
        <g>
          <path class="cls-22" d="m685.65,360.18h-49.04c-7.99,0-14.66,6.08-15.41,14.03l-4.14,44.31c-.94,10.09-9.16,17.96-19.28,18.48l-47.33,2.4c-5.75.29-10.27,5.04-10.27,10.8v1c0,4.95,4.01,8.96,8.96,8.96h144.14l7.76-83.07c.85-9.07-6.29-16.91-15.41-16.91Z"/>
          <path class="cls-14" d="m685.65,360.18h-49.04c-7.99,0-14.66,6.08-15.41,14.03l-4.14,44.31c-.94,10.09-9.16,17.96-19.28,18.48l-47.33,2.4c-5.75.29-10.27,5.04-10.27,10.8v1c0,4.95,4.01,8.96,8.96,8.96h144.14l7.76-83.07c.85-9.07-6.29-16.91-15.41-16.91Z"/>
          <path class="cls-23" d="m573.08,410.17h6.75v36.58c0,1.1-.9,2-2,2h-2.75c-1.1,0-2-.9-2-2v-36.58h0Z"/>
          <path class="cls-8" d="m573.08,410.17h6.75v36.58c0,1.1-.9,2-2,2h-2.75c-1.1,0-2-.9-2-2v-36.58h0Z"/>
          <g>
            <path class="cls-22" d="m605.65,399.96h-15.05v12.46h15.05c3.44,0,6.23-2.79,6.23-6.23s-2.79-6.23-6.23-6.23Z"/>
            <path class="cls-10" d="m605.65,399.96h-15.05v12.46h15.05c3.44,0,6.23-2.79,6.23-6.23s-2.79-6.23-6.23-6.23Z"/>
            <rect class="cls-22" x="541.03" y="399.96" width="64.61" height="12.46" rx="3.69" ry="3.69"/>
            <rect class="cls-14" x="541.03" y="399.96" width="64.61" height="12.46" rx="3.69" ry="3.69"/>
          </g>
          <path class="cls-22" d="m696.68,460.16h-72.09l8.03-85.95c.74-7.95,7.42-14.03,15.41-14.03h49.04c9.11,0,16.25,7.84,15.41,16.91l-7.01,75.08c-.42,4.53-4.23,7.99-8.77,7.99Z"/>
          <path class="cls-10" d="m696.68,460.16h-72.09l8.03-85.95c.74-7.95,7.42-14.03,15.41-14.03h49.04c9.11,0,16.25,7.84,15.41,16.91l-7.01,75.08c-.42,4.53-4.23,7.99-8.77,7.99Z"/>
        </g>
      </g>
      <g>
        <path class="cls-23" d="m528.27,571.31h-70.12c-5.88,0-10.65-4.77-10.65-10.65v-161.2c0-5.88,4.77-10.65,10.65-10.65h70.12c1.57,0,2.85,1.27,2.85,2.85h0c0,1.57-1.27,2.85-2.85,2.85h-70.12c-2.74,0-4.96,2.22-4.96,4.96v161.2c0,2.74,2.22,4.96,4.96,4.96h70.12c1.57,0,2.85,1.27,2.85,2.85h0c0,1.57-1.27,2.85-2.85,2.85Z"/>
        <g class="cls-28">
          <path class="cls-7" d="m528.27,571.31h-70.12c-5.88,0-10.65-4.77-10.65-10.65v-161.2c0-5.88,4.77-10.65,10.65-10.65h70.12c1.57,0,2.85,1.27,2.85,2.85h0c0,1.57-1.27,2.85-2.85,2.85h-70.12c-2.74,0-4.96,2.22-4.96,4.96v161.2c0,2.74,2.22,4.96,4.96,4.96h70.12c1.57,0,2.85,1.27,2.85,2.85h0c0,1.57-1.27,2.85-2.85,2.85Z"/>
        </g>
      </g>
      <path class="cls-7" d="m481.93,303.99l-4.94-3.28c-.53-.35-.53-1.13,0-1.48l4.94-3.28c.37-.24.87-.14,1.11.22h0c.24.37.14.87-.22,1.11l-4.04,2.68,4.04,2.68c.37.24.47.74.22,1.11h0c-.24.37-.74.47-1.11.22Z"/>
      <path class="cls-7" d="m492.72,303.77h0c-.24-.37-.14-.87.22-1.11l4.04-2.68-4.04-2.68c-.37-.24-.47-.74-.22-1.11h0c.24-.37.74-.47,1.11-.22l4.94,3.28c.53.35.53,1.13,0,1.48l-4.94,3.28c-.37.24-.87.14-1.11-.22Z"/>
      <path class="cls-7" d="m486.04,305.9h0c-.42-.13-.66-.58-.52-1l3.36-10.65c.13-.42.58-.66,1-.52h0c.42.13.66.58.52,1l-3.36,10.65c-.13.42-.58.66-1,.52Z"/>
      <g>
        <path class="cls-7" d="m513.67,314.1h-36.23c-.47,0-.84-.38-.84-.84h0c0-.47.38-.84.84-.84h36.23c.47,0,.84.38.84.84h0c0,.47-.38.84-.84.84Z"/>
        <path class="cls-7" d="m555.29,314.1h-36.23c-.47,0-.84-.38-.84-.84h0c0-.47.38-.84.84-.84h36.23c.47,0,.84.38.84.84h0c0,.47-.38.84-.84.84Z"/>
        <path class="cls-7" d="m498.14,321.56h-20.7c-.47,0-.84-.38-.84-.84h0c0-.47.38-.84.84-.84h20.7c.47,0,.84.38.84.84h0c0,.47-.38.84-.84.84Z"/>
        <path class="cls-7" d="m537.45,321.56h-33.91c-.47,0-.84-.38-.84-.84h0c0-.47.38-.84.84-.84h33.91c.47,0,.84.38.84.84h0c0,.47-.38.84-.84.84Z"/>
        <path class="cls-7" d="m532.62,329.02h-55.19c-.47,0-.84-.38-.84-.84h0c0-.47.38-.84.84-.84h55.19c.47,0,.84.38.84.84h0c0,.47-.38.84-.84.84Z"/>
        <path class="cls-7" d="m549.55,329.02h-11.52c-.47,0-.84-.38-.84-.84h0c0-.47.38-.84.84-.84h11.52c.47,0,.84.38.84.84h0c0,.47-.38.84-.84.84Z"/>
        <path class="cls-7" d="m503.2,336.47h-25.77c-.47,0-.84-.38-.84-.84h0c0-.47.38-.84.84-.84h25.77c.47,0,.84.38.84.84h0c0,.47-.38.84-.84.84Z"/>
        <path class="cls-7" d="m540.68,336.47h-32.08c-.47,0-.84-.38-.84-.84h0c0-.47.38-.84.84-.84h32.08c.47,0,.84.38.84.84h0c0,.47-.38.84-.84.84Z"/>
        <path class="cls-7" d="m513.67,343.93h-36.23c-.47,0-.84-.38-.84-.84h0c0-.47.38-.84.84-.84h36.23c.47,0,.84.38.84.84h0c0,.47-.38.84-.84.84Z"/>
        <path class="cls-7" d="m544.62,343.93h-25.56c-.47,0-.84-.38-.84-.84h0c0-.47.38-.84.84-.84h25.56c.47,0,.84.38.84.84h0c0,.47-.38.84-.84.84Z"/>
      </g>
      <g>
        <path class="cls-18" d="m230.19,198.29c.66,7.66-1,21.55-6.78,25.98,9.43,3.4,19.41,9.26,25.8,16.98,6.32-9.21-.88-14.46-.88-14.46-8.15-2.9-7.26-9.06-5.17-14.74l-12.98-13.77Z"/>
        <path class="cls-23" d="m260.98,191.68c-.09.96.36,1.79.99,1.85.63.06,1.21-.68,1.31-1.64.09-.96-.36-1.8-.99-1.86-.63-.06-1.19.68-1.31,1.65Z"/>
        <path class="cls-23" d="m262.03,190.06l2.37-.45s-1.35,1.75-2.37.45Z"/>
        <path class="cls-19" d="m261.31,192.71c.66,2.28,1.63,4.46,2.88,6.48-1.06.62-2.35.74-3.51.33l.63-6.81Z"/>
        <path class="cls-23" d="m263.71,186.62c.15-.02.29-.09.38-.2.2-.24.17-.6-.06-.81-1.36-1.23-3.23-1.73-5.02-1.34-.27.16-.35.52-.19.78.1.17.29.27.49.27,1.42-.28,2.9.13,3.97,1.11.11.12.26.18.42.17Z"/>
        <path class="cls-18" d="m229.37,185.57c-.38,11.9-.78,16.96,4.52,23.59,7.99,9.98,22.45,7.79,26.31-3.79,3.48-10.42,3.52-28.18-7.42-33.95-10.95-5.77-23.03,2.22-23.41,14.15Z"/>
        <path class="cls-23" d="m229.94,208.03c-11.7-1.99-8.34-9.37-8.34-9.37-11.53-2.33-2.63-7.96-2.63-7.96-9.59-4.13,0-7.83,0-7.83-9.24-7.67,4-10.27,4-10.27-3.27-11.96,8.08-7.05,8.08-7.05,6.19-10.27,11.52-.46,11.52-.46,10.84-14.72,13.48-2.3,13.48-2.3,11.07-2.91,6.82,8.73,6.82,8.73,9.12,2.45,1.96,7.06,1.96,7.06,3.51,4.45-9.2,5.21-9.2,5.21,0,0,6.05,9.69-.05,12.45l-15.39,11.8s-7.07-2.94-10.26,0Z"/>
        <path class="cls-22" d="m241.44,198.43s8.06-19.48,1.78-36.19l5.37-1.84s7.01,24.23-7.15,38.03Z"/>
        <path class="cls-18" d="m249.55,196.29c1.35,2.79,1.86,4.01,3.78,4.94,1.68.95,3.82.35,4.76-1.34.43-.77.56-1.67.35-2.53-.51-2.8-2.66-6.92-5.64-7.01-2.97-.09-4.65,3.17-3.26,5.94Z"/>
        <g>
          <path class="cls-18" d="m241.15,236.93s11.01,8.08,15.48,11.34l31.87-15.03h0c-.09-3.62,2.05-6.92,5.38-8.32l2.27-.96,4.81-2.14c1.82-.81,3.94-.59,5.55.59h0c1.91,1.39,2.74,3.82,2.07,6.08h0c-1.37,4.65-5.07,8.25-9.76,9.48l-4.65,1.22s-27.34,20.75-37.07,21.29c-9.73.54-24.06-9.09-24.06-9.09l8.11-14.44Z"/>
          <path class="cls-23" d="m214.66,223.21c8.41-.04,17.81,5.24,32.62,14.84,0,0-2.8,10.53-11.41,18.03,0,0-8.12-2.19-18.93-12.36-13.08-12.31-7.44-20.49-2.28-20.51Z"/>
        </g>
        <g>
          <g>
            <path class="cls-22" d="m374.44,247.59h-79.72c-2.89,0-5.03-2.34-4.78-5.24l6.01-68.64c.25-2.89,2.8-5.24,5.7-5.24h79.72c2.89,0,5.03,2.34,4.78,5.24l-6.01,68.64c-.25,2.89-2.8,5.24-5.7,5.24Z"/>
            <path class="cls-15" d="m374.44,247.59h-79.72c-2.89,0-5.03-2.34-4.78-5.24l6.01-68.64c.25-2.89,2.8-5.24,5.7-5.24h79.72c2.89,0,5.03,2.34,4.78,5.24l-6.01,68.64c-.25,2.89-2.8,5.24-5.7,5.24Z"/>
          </g>
          <path class="cls-13" d="m374.73,244.34c1.09,0,2.06-.89,2.16-1.98l6.01-68.64c.1-1.09-.72-1.98-1.81-1.98h-79.72c-1.09,0-2.06.89-2.16,1.98l-6.01,68.64c-.1,1.09.72,1.98,1.81,1.98h79.72Z"/>
          <g>
            <path class="cls-22" d="m319.32,203.98l-26.06,37.7-.06.68c-.1,1.09.72,1.98,1.81,1.98h45.16l-20.85-40.36Z"/>
            <path class="cls-14" d="m319.32,203.98l-26.06,37.7-.06.68c-.1,1.09.72,1.98,1.81,1.98h45.16l-20.85-40.36Z"/>
          </g>
          <path class="cls-22" d="m377.11,239.72l-21.82-41.44-32.31,46.05h51.75c1.09,0,2.06-.89,2.16-1.98l.23-2.63Z"/>
          <g>
            <path class="cls-22" d="m346.86,190.96c-.35,4.05-3.92,7.33-7.97,7.33s-7.04-3.28-6.68-7.33c.35-4.05,3.92-7.33,7.97-7.33s7.04,3.28,6.68,7.33Z"/>
            <path class="cls-15" d="m346.86,190.96c-.35,4.05-3.92,7.33-7.97,7.33s-7.04-3.28-6.68-7.33c.35-4.05,3.92-7.33,7.97-7.33s7.04,3.28,6.68,7.33Z"/>
          </g>
        </g>
        <g>
          <polygon class="cls-18" points="147.89 524.6 139.8 548.61 152.21 553.68 161.93 531.52 147.89 524.6"/>
          <g>
            <path class="cls-22" d="m156.67,553.08c-.13-.07-.2-.21-.19-.36.02-.15.13-.27.27-.3.26-.06,6.12-1.37,8.3.03.41.25.7.65.82,1.12.19.53.01,1.13-.43,1.48-.82.58-2.76.34-4.54-.21-1.46-.46-2.88-1.05-4.25-1.75Zm1.24-.12c2.56,1.15,6.17,2.24,7.12,1.51.13-.09.28-.26.16-.76-.06-.29-.25-.54-.52-.68-.19-.12-.4-.22-.62-.28-2.04-.32-4.12-.25-6.14.21Z"/>
            <path class="cls-22" d="m156.5,553c-.08-.1-.1-.23-.06-.35.07-.17,1.65-3.91,3.93-4.84.66-.28,1.4-.28,2.06,0,.9.38,1.05.94.96,1.34-.19,1.7-4.58,3.74-6.52,3.97-.05,0-.1,0-.15-.03-.08,0-.17-.03-.23-.09Zm5.51-4.62c-.43-.14-.89-.11-1.3.06-1.45.9-2.58,2.23-3.25,3.79,2.09-.5,5.09-2.23,5.3-3.22,0-.09.04-.35-.56-.59l-.2-.04h0Z"/>
            <path class="cls-23" d="m155.83,550.63l-15.59-4.81c-.59-.18-1.22.07-1.53.6l-6.74,11.82c-.61,1.04-.25,2.38.79,2.99.13.08.28.14.42.19,5.65,1.64,10.75,2.87,17.74,5.04,8.26,2.55,5.86,2.89,15.53,6.03,5.83,1.88,8.95-4.44,6.57-5.53-10.91-4.93-11.03-8.73-14.16-14.14-.71-1.07-1.79-1.85-3.04-2.18Z"/>
          </g>
          <polygon class="cls-24" points="144.01 536.11 157.03 542.69 161.93 531.52 147.89 524.6 144.01 536.11"/>
        </g>
        <path class="cls-22" d="m202.93,302.47s-17.49,13.37-13.75,55.21c.35,3.87,1.6,7.92,1.62,12.36.01,2.94-.81,5.01-1.77,11.62-1.4,9.64-3.98,45.55-6.68,50.22-2.68,4.62-3.82,3.85-11.46,16.73-8.21,13.86-18.71,38.17-26.89,79.38,0,0,7.1,5.55,18.28,7.65,0,0,44.7-70.48,54.2-96.72,8.5-23.48,18.63-98.41,18.63-98.41l.82-32.49-33.01-5.56Z"/>
        <path class="cls-1" d="m222.07,357.67h-12.67s-4.16,39.82,9.6,73.06c1.44-5.34,2.89-11.74,4.3-18.64l5.47-35.08c-.78-5.93-1.39-10.44-1.48-10.75-.28-.92-5.23-8.59-5.23-8.59Z"/>
        <g>
          <polygon class="cls-18" points="219.98 534.26 220.06 559.79 234.46 558.82 236.67 534.26 219.98 534.26"/>
          <g>
            <path class="cls-22" d="m236.12,558.4c-.15-.03-.26-.14-.3-.28-.03-.15.03-.3.16-.37.23-.14,5.33-3.3,7.85-2.71.47.1.88.39,1.14.79.35.44.38,1.06.08,1.54-.59.82-2.49,1.23-4.35,1.3-1.53.05-3.07-.04-4.59-.26Zm1.13-.52c2.79.24,6.56.09,7.22-.91.1-.12.18-.34-.1-.77-.15-.26-.42-.43-.71-.47-.22-.05-.45-.08-.68-.06-2.03.37-3.98,1.12-5.73,2.22Z"/>
            <path class="cls-22" d="m235.93,558.38c-.11-.07-.17-.19-.17-.31.01-.19.27-4.23,2.12-5.86.53-.48,1.23-.72,1.95-.68.98.06,1.3.54,1.35.95.38,1.67-3.1,5.04-4.85,5.89-.05.02-.1.03-.15.02-.08.03-.17.03-.24,0Zm3.68-6.17c-.45.01-.88.18-1.21.49-1.07,1.33-1.7,2.95-1.82,4.65,1.81-1.16,4.08-3.78,3.95-4.79-.03-.09-.08-.34-.72-.38l-.2.03h0Z"/>
            <path class="cls-23" d="m234.52,556.36l-16.31.58c-.61.02-1.13.47-1.25,1.07l-2.47,13.37c-.23,1.18.55,2.33,1.73,2.56.15.03.31.04.46.04,5.88-.31,11.09-.82,18.41-1.07,8.64-.31,6.48.81,16.64.59,6.12-.14,6.99-7.13,4.39-7.38-11.93-1.07-13.29-4.61-18.02-8.7-1.03-.78-2.3-1.16-3.59-1.06Z"/>
          </g>
          <polygon class="cls-24" points="220.02 547.46 235.51 547.14 236.67 534.26 219.98 534.26 220.02 547.46"/>
        </g>
        <path class="cls-22" d="m212.67,297.78s-17.45,23.12-4.52,68.39l14.59,66.03s-13.89,30.04-6.56,109.28c0,0,11.03,1.77,21.55-.48,0,0,16.25-83.69,18.72-111.96,2.72-31.13,1.09-125,1.09-125l-44.88-6.26Z"/>
        <g>
          <path class="cls-23" d="m223.22,222.89s-2.7-11.56,14.63-6.5c17.34,5.06,15.89,14.93,15.89,14.93l-30.53-8.43Z"/>
          <path class="cls-27" d="m223.22,222.89s-2.7-11.56,14.63-6.5c17.34,5.06,15.89,14.93,15.89,14.93l-30.53-8.43Z"/>
        </g>
        <path class="cls-23" d="m266.24,251.78c0,4.05-1.71,9.91-3.24,16.47-.75,3.11-1.43,6.35-1.89,9.63-2.46,17.91-3.25,36.76-3.25,36.76,0,0-28.34,7.96-55.87-11.08,0,0,6.82-5.78,5.42-45.79-.63-18.03-7.14-39.46,22.65-36.09,25.15,2.85,33.62,10.66,35.65,22.88.02.15.05.31.08.47.05.37.1.75.15,1.14.21,1.77.31,3.66.31,5.61Z"/>
        <path class="cls-27" d="m266.24,251.78c0,4.05-1.71,9.91-3.24,16.47-6.8-8.18-13.62-23.51-13.62-23.51l5.61-8.27,9.89,4.6c.34,1.12.6,2.28.81,3.48.02.15.05.31.08.47.05.37.1.75.15,1.14.21,1.77.31,3.66.31,5.61Z"/>
        <path class="cls-18" d="m276.52,244.72s9.68,9.63,13.62,13.52l33.75-10.12h0c.45-3.59,3.05-6.54,6.56-7.43l2.38-.61,5.07-1.4c1.92-.53,3.98,0,5.4,1.41h0c1.68,1.66,2.14,4.19,1.14,6.32h0c-2.04,4.4-6.24,7.4-11.06,7.92l-4.78.51s-30.13,16.44-39.82,15.53c-9.7-.91-22.44-12.57-22.44-12.57l10.17-13.08Z"/>
        <path class="cls-23" d="m252.36,227.2c8.33,1.22,16.83,7.84,30.04,19.53,0,0-4.33,9.99-13.97,16.13,0,0-7.71-3.37-16.88-15.04-11.1-14.12-4.3-21.37.8-20.62Z"/>
      </g>
    </g>
  </g>
</svg>