<?xml version="1.0" encoding="UTF-8"?>
<svg id="Layer_2" data-name="Layer 2" xmlns="http://www.w3.org/2000/svg" viewBox="0 0 1076.33 600.39">
  <defs>
    <style>
      .cls-1, .cls-2, .cls-3, .cls-4, .cls-5, .cls-6, .cls-7, .cls-8, .cls-9, .cls-10, .cls-11, .cls-12 {
        stroke-miterlimit: 10;
      }

      .cls-1, .cls-2, .cls-3, .cls-4, .cls-13 {
        stroke: #495ad6;
      }

      .cls-1, .cls-14 {
        fill: #fff;
      }

      .cls-1, .cls-4, .cls-5, .cls-11 {
        stroke-width: .9px;
      }

      .cls-2, .cls-15, .cls-3, .cls-4, .cls-5, .cls-6, .cls-8, .cls-9, .cls-10, .cls-11, .cls-13, .cls-12 {
        fill: none;
      }

      .cls-2, .cls-3, .cls-13 {
        stroke-width: 1.67px;
      }

      .cls-16 {
        fill: #002c54;
      }

      .cls-17 {
        fill: #052635;
      }

      .cls-18 {
        fill: #e49191;
      }

      .cls-19 {
        fill: #e5918f;
      }

      .cls-20 {
        fill: #f0f4ff;
      }

      .cls-21, .cls-7 {
        fill: #7e89fd;
      }

      .cls-22 {
        fill: #6589d1;
      }

      .cls-23 {
        fill: #7f95f4;
      }

      .cls-24 {
        fill: #b4c1ef;
      }

      .cls-25 {
        fill: #3052ce;
      }

      .cls-26 {
        fill: #a4afff;
      }

      .cls-27 {
        fill: #b2c1f9;
      }

      .cls-28 {
        fill: #cc6362;
      }

      .cls-29 {
        fill: #c7e5f2;
      }

      .cls-30 {
        fill: #dee3fc;
      }

      .cls-31 {
        fill: #193091;
      }

      .cls-32 {
        fill: #467cdb;
      }

      .cls-33 {
        fill: #281616;
      }

      .cls-34 {
        fill: #375f84;
      }

      .cls-35 {
        fill: #3b47bc;
      }

      .cls-36 {
        fill: #5996ef;
      }

      .cls-37 {
        fill: #3945ba;
      }

      .cls-38 {
        fill: #3b5fb7;
      }

      .cls-39 {
        fill: #4b5a9b;
      }

      .cls-40 {
        fill: #495ad6;
      }

      .cls-15 {
        stroke: #698bd1;
        stroke-dasharray: 0 2.84;
      }

      .cls-15, .cls-3, .cls-6, .cls-8, .cls-10, .cls-11, .cls-13 {
        stroke-linecap: round;
      }

      .cls-15, .cls-13 {
        stroke-linejoin: round;
      }

      .cls-5, .cls-8, .cls-10, .cls-11, .cls-12 {
        stroke: #fff;
      }

      .cls-6, .cls-7, .cls-9 {
        stroke: #dee3fc;
      }

      .cls-8 {
        stroke-width: 2px;
      }

      .cls-9 {
        stroke-width: .79px;
      }

      .cls-10 {
        stroke-width: 1.11px;
      }

      .cls-41 {
        opacity: .5;
      }

      .cls-12 {
        stroke-width: .5px;
      }
    </style>
  </defs>
  <g id="OBJECTS">
    <g>
      <g>
        <g>
          <path class="cls-9" d="m364.34,142.58v-16.95c0-1.66-1.34-3-3-3h-4.36c-1.28,0-2.41-.87-2.69-2.11-1.51-6.58-4.08-12.76-7.55-18.32-.69-1.11-.56-2.54.36-3.47l3.07-3.07c1.17-1.17,1.17-3.07,0-4.25l-11.98-11.98c-1.17-1.17-3.07-1.17-4.25,0l-3.06,3.06c-.93.93-2.36,1.06-3.47.36-5.57-3.47-11.74-6.05-18.33-7.56-1.24-.29-2.11-1.42-2.11-2.69v-4.35c0-1.66-1.34-3-3-3h-16.95c-1.66,0-3,1.34-3,3v4.35c0,1.28-.87,2.41-2.11,2.69-6.59,1.51-12.76,4.09-18.33,7.56-1.11.69-2.54.56-3.47-.36l-3.06-3.06c-1.17-1.17-3.07-1.17-4.25,0l-11.98,11.98c-1.17,1.17-1.17,3.07,0,4.25l3.06,3.06c.93.93,1.06,2.36.36,3.47-3.47,5.57-6.04,11.75-7.55,18.33-.29,1.24-1.42,2.11-2.69,2.11h-4.36c-1.66,0-3,1.34-3,3v16.95c0,1.66,1.34,3,3,3h4.36c1.28,0,2.41.87,2.69,2.11,1.51,6.58,4.09,12.76,7.55,18.32.69,1.11.56,2.54-.36,3.47l-3.07,3.07c-1.17,1.17-1.17,3.07,0,4.25l11.98,11.98c1.17,1.17,3.07,1.17,4.25,0l3.07-3.07c.93-.93,2.36-1.06,3.47-.36,5.56,3.47,11.74,6.03,18.32,7.54,1.25.29,2.11,1.42,2.11,2.69v4.37c0,1.66,1.34,3,3,3h16.95c1.66,0,3-1.34,3-3v-4.37c0-1.28.87-2.41,2.11-2.69,6.58-1.51,12.76-4.08,18.32-7.54,1.11-.69,2.54-.56,3.47.36l3.07,3.07c1.17,1.17,3.07,1.17,4.25,0l11.98-11.98c1.17-1.17,1.17-3.07,0-4.25l-3.07-3.07c-.93-.93-1.06-2.36-.36-3.47,3.47-5.56,6.04-11.74,7.55-18.32.29-1.24,1.42-2.11,2.69-2.11h4.37c1.66,0,3-1.34,3-3Zm-68.86,39.31c-26.39,0-47.76-21.41-47.76-47.8s21.37-47.76,47.76-47.76,47.76,21.41,47.76,47.76-21.37,47.8-47.76,47.8Z"/>
          <path class="cls-30" d="m442.3,199.95v-11.55c0-1.13-.92-2.05-2.05-2.05h-2.97c-.87,0-1.64-.59-1.84-1.44-1.03-4.49-2.78-8.69-5.15-12.49-.47-.76-.38-1.73.25-2.36l2.09-2.09c.8-.8.8-2.09,0-2.89l-8.17-8.17c-.8-.8-2.09-.8-2.89,0l-2.09,2.09c-.63.63-1.61.72-2.36.25-3.79-2.37-8-4.12-12.49-5.15-.85-.19-1.44-.96-1.44-1.84v-2.96c0-1.13-.92-2.05-2.05-2.05h-11.55c-1.13,0-2.05.92-2.05,2.05v2.96c0,.87-.59,1.64-1.44,1.84-4.49,1.03-8.7,2.78-12.49,5.15-.76.47-1.73.38-2.36-.25l-2.09-2.09c-.8-.8-2.09-.8-2.89,0l-8.17,8.17c-.8.8-.8,2.09,0,2.89l2.09,2.09c.63.63.72,1.61.25,2.36-2.36,3.79-4.12,8-5.15,12.49-.19.85-.96,1.44-1.84,1.44h-2.97c-1.13,0-2.05.92-2.05,2.05v11.55c0,1.13.92,2.05,2.05,2.05h2.97c.87,0,1.64.59,1.84,1.44,1.03,4.49,2.78,8.7,5.15,12.49.47.76.38,1.73-.25,2.36l-2.09,2.09c-.8.8-.8,2.09,0,2.89l8.17,8.17c.8.8,2.09.8,2.89,0l2.09-2.09c.63-.63,1.61-.72,2.36-.25,3.79,2.36,8,4.11,12.49,5.14.85.19,1.44.96,1.44,1.84v2.98c0,1.13.92,2.05,2.05,2.05h11.55c1.13,0,2.05-.92,2.05-2.05v-2.98c0-.87.59-1.64,1.44-1.84,4.48-1.03,8.69-2.78,12.48-5.14.76-.47,1.73-.38,2.36.25l2.09,2.09c.8.8,2.09.8,2.89,0l8.17-8.17c.8-.8.8-2.09,0-2.89l-2.09-2.09c-.63-.63-.72-1.61-.25-2.36,2.36-3.79,4.12-8,5.15-12.49.19-.85.96-1.44,1.84-1.44h2.97c1.13,0,2.05-.92,2.05-2.05Zm-46.93,24.96c-16.97,0-30.71-13.77-30.71-30.74s13.74-30.71,30.71-30.71,30.71,13.77,30.71,30.71-13.74,30.74-30.71,30.74Z"/>
        </g>
        <g>
          <circle class="cls-26" cx="224.79" cy="500.19" r="5.6"/>
          <circle class="cls-26" cx="974.92" cy="347.19" r="5.6"/>
          <circle class="cls-26" cx="963.73" cy="147.25" r="5.6"/>
          <circle class="cls-26" cx="762.41" cy="79.3" r="3.51"/>
          <path class="cls-26" d="m246.71,32.51c0,1.94-1.57,3.51-3.51,3.51s-3.51-1.57-3.51-3.51,1.57-3.51,3.51-3.51,3.51,1.57,3.51,3.51Z"/>
          <path class="cls-26" d="m324.45,248.8c0,1.94-1.57,3.51-3.51,3.51s-3.51-1.57-3.51-3.51,1.57-3.51,3.51-3.51,3.51,1.57,3.51,3.51Z"/>
          <path class="cls-26" d="m195.59,505.79c0,1.94-1.57,3.51-3.51,3.51s-3.51-1.57-3.51-3.51,1.57-3.51,3.51-3.51,3.51,1.57,3.51,3.51Z"/>
          <circle class="cls-26" cx="892.79" cy="503.49" r="5.6"/>
          <circle class="cls-26" cx="1011.85" cy="503.49" r="5.6"/>
          <circle class="cls-26" cx="343.24" cy="17.24" r="5.6"/>
          <path class="cls-26" d="m729.57,272c0,4.14-3.35,7.49-7.49,7.49s-7.49-3.35-7.49-7.49,3.35-7.49,7.49-7.49,7.49,3.35,7.49,7.49Z"/>
          <path class="cls-26" d="m176.99,179.35c0,4.14-3.35,7.49-7.49,7.49s-7.49-3.35-7.49-7.49,3.35-7.49,7.49-7.49,7.49,3.35,7.49,7.49Z"/>
        </g>
        <g>
          <rect class="cls-14" x="145.39" y="55.9" width="11.62" height="11.62" rx=".66" ry=".66"/>
          <rect class="cls-14" x="160.93" y="55.9" width="11.62" height="11.62" rx=".66" ry=".66"/>
          <rect class="cls-14" x="176.47" y="55.9" width="11.62" height="11.62" rx=".66" ry=".66"/>
        </g>
        <g>
          <rect class="cls-30" x="936.78" y="463.9" width="11.62" height="11.62" rx=".66" ry=".66"/>
          <rect class="cls-30" x="952.32" y="463.9" width="11.62" height="11.62" rx=".66" ry=".66"/>
          <rect class="cls-30" x="967.86" y="463.9" width="11.62" height="11.62" rx=".66" ry=".66"/>
        </g>
        <g>
          <rect class="cls-30" x="218.33" y="457.54" width="11.62" height="11.62" rx=".66" ry=".66"/>
          <rect class="cls-30" x="233.87" y="457.54" width="11.62" height="11.62" rx=".66" ry=".66"/>
          <rect class="cls-30" x="249.42" y="457.54" width="11.62" height="11.62" rx=".66" ry=".66"/>
        </g>
      </g>
      <g>
        <g>
          <rect class="cls-37" x="390.99" y=".39" width="294.35" height="568.62" rx="21.35" ry="21.35"/>
          <rect class="cls-14" x="396.51" y="5.37" width="283.32" height="555.56" rx="18.7" ry="18.7"/>
          <path class="cls-30" d="m667.43,35.33v493.14c0,11.57-9.38,20.94-20.94,20.94h-216.63c-11.57,0-20.94-9.38-20.94-20.94V35.33c0-11.57,9.38-20.94,20.94-20.94h36.13c2,0,3.84,1.13,4.74,2.92l3.84,7.66c1.75,3.53,5.36,5.75,9.28,5.75h108.68c3.92,0,7.53-2.21,9.28-5.75l3.84-7.66c.9-1.79,2.73-2.92,4.74-2.92h36.13c11.57,0,20.94,9.38,20.94,20.94Z"/>
          <path class="cls-30" d="m583.78,21.76h-87.53c-2.04,0-3.69-1.65-3.69-3.69h0c0-2.04,1.65-3.69,3.69-3.69h87.53c2.04,0,3.69,1.65,3.69,3.69h0c0,2.04-1.65,3.69-3.69,3.69Z"/>
        </g>
        <rect class="cls-15" x="424.4" y="435.8" width="222.5" height="96.49" rx="8.38" ry="8.38"/>
        <rect class="cls-15" x="516.54" y="227.77" width="116.61" height="67.75" rx="6.04" ry="6.04"/>
        <g>
          <rect class="cls-39" x="432.5" y="311.76" width="223.38" height="107.99" rx="7.2" ry="7.2"/>
          <rect class="cls-23" x="424.4" y="303.03" width="222.5" height="107.98" rx="11.89" ry="11.89"/>
          <rect class="cls-14" x="434.68" y="327.61" width="74.62" height="74.62" rx="4.86" ry="4.86"/>
          <g>
            <path class="cls-27" d="m570.64,337.05h-51.56c-1.4,0-2.54-1.14-2.54-2.54h0c0-1.4,1.14-2.54,2.54-2.54h51.56c1.4,0,2.54,1.14,2.54,2.54h0c0,1.4-1.14,2.54-2.54,2.54Z"/>
            <path class="cls-27" d="m547.15,347.19h-28.06c-1.4,0-2.54-1.14-2.54-2.54h0c0-1.4,1.14-2.54,2.54-2.54h28.06c1.4,0,2.54,1.14,2.54,2.54h0c0,1.4-1.14,2.54-2.54,2.54Z"/>
            <path class="cls-27" d="m633.41,347.19h-75.94c-1.4,0-2.54-1.14-2.54-2.54h0c0-1.4,1.14-2.54,2.54-2.54h75.94c1.4,0,2.54,1.14,2.54,2.54h0c0,1.4-1.14,2.54-2.54,2.54Z"/>
            <path class="cls-27" d="m562.5,357.33h-43.42c-1.4,0-2.54-1.14-2.54-2.54h0c0-1.4,1.14-2.54,2.54-2.54h43.42c1.4,0,2.54,1.14,2.54,2.54h0c0,1.4-1.14,2.54-2.54,2.54Z"/>
            <path class="cls-27" d="m599.36,357.33h-27.3c-1.4,0-2.54-1.14-2.54-2.54h0c0-1.4,1.14-2.54,2.54-2.54h27.3c1.4,0,2.54,1.14,2.54,2.54h0c0,1.4-1.14,2.54-2.54,2.54Z"/>
            <path class="cls-27" d="m633.41,357.33h-25.14c-1.4,0-2.54-1.14-2.54-2.54h0c0-1.4,1.14-2.54,2.54-2.54h25.14c1.4,0,2.54,1.14,2.54,2.54h0c0,1.4-1.14,2.54-2.54,2.54Z"/>
            <path class="cls-27" d="m633.41,367.46h-114.33c-1.4,0-2.54-1.14-2.54-2.54h0c0-1.4,1.14-2.54,2.54-2.54h114.33c1.4,0,2.54,1.14,2.54,2.54h0c0,1.4-1.14,2.54-2.54,2.54Z"/>
            <path class="cls-27" d="m582.01,377.6h-62.92c-1.4,0-2.54-1.14-2.54-2.54h0c0-1.4,1.14-2.54,2.54-2.54h62.92c1.4,0,2.54,1.14,2.54,2.54h0c0,1.4-1.14,2.54-2.54,2.54Z"/>
            <path class="cls-27" d="m633.41,377.6h-41.26c-1.4,0-2.54-1.14-2.54-2.54h0c0-1.4,1.14-2.54,2.54-2.54h41.26c1.4,0,2.54,1.14,2.54,2.54h0c0,1.4-1.14,2.54-2.54,2.54Z"/>
            <path class="cls-27" d="m556.05,387.73h-36.97c-1.4,0-2.54-1.14-2.54-2.54h0c0-1.4,1.14-2.54,2.54-2.54h36.97c1.4,0,2.54,1.14,2.54,2.54h0c0,1.4-1.14,2.54-2.54,2.54Z"/>
            <path class="cls-27" d="m603.03,387.73h-36.97c-1.4,0-2.54-1.14-2.54-2.54h0c0-1.4,1.14-2.54,2.54-2.54h36.97c1.4,0,2.54,1.14,2.54,2.54h0c0,1.4-1.14,2.54-2.54,2.54Z"/>
            <path class="cls-27" d="m633.41,387.73h-21.45c-1.4,0-2.54-1.14-2.54-2.54h0c0-1.4,1.14-2.54,2.54-2.54h21.45c1.4,0,2.54,1.14,2.54,2.54h0c0,1.4-1.14,2.54-2.54,2.54Z"/>
            <path class="cls-27" d="m570.64,397.87h-51.56c-1.4,0-2.54-1.14-2.54-2.54h0c0-1.4,1.14-2.54,2.54-2.54h51.56c1.4,0,2.54,1.14,2.54,2.54h0c0,1.4-1.14,2.54-2.54,2.54Z"/>
            <path class="cls-27" d="m633.41,337.05h-51.56c-1.4,0-2.54-1.14-2.54-2.54h0c0-1.4,1.14-2.54,2.54-2.54h51.56c1.4,0,2.54,1.14,2.54,2.54h0c0,1.4-1.14,2.54-2.54,2.54Z"/>
          </g>
          <g>
            <path class="cls-25" d="m646.89,314.92v3.54h-222.5v-3.54c0-6.56,5.32-11.89,11.89-11.89h198.72c6.56,0,11.89,5.32,11.89,11.89Z"/>
            <g>
              <path class="cls-30" d="m604.95,311.02c0,1.52-1.23,2.76-2.76,2.76s-2.76-1.23-2.76-2.76,1.23-2.76,2.76-2.76,2.76,1.23,2.76,2.76Z"/>
              <path class="cls-30" d="m619.06,311.02c0,1.52-1.23,2.76-2.76,2.76s-2.76-1.23-2.76-2.76,1.23-2.76,2.76-2.76,2.76,1.23,2.76,2.76Z"/>
              <path class="cls-30" d="m633.16,311.02c0,1.52-1.23,2.76-2.76,2.76s-2.76-1.23-2.76-2.76,1.23-2.76,2.76-2.76,2.76,1.23,2.76,2.76Z"/>
            </g>
          </g>
        </g>
        <g>
          <rect class="cls-4" x="437.42" y="227.83" width="67.68" height="67.68" rx="7.15" ry="7.15"/>
          <g>
            <polyline class="cls-13" points="460.71 251.88 450.96 261.63 460.78 271.46"/>
            <polyline class="cls-13" points="481.82 251.88 491.57 261.63 481.75 271.46"/>
            <line class="cls-13" x1="475.83" y1="251.88" x2="466.7" y2="271.46"/>
          </g>
        </g>
        <g>
          <path class="cls-27" d="m646.89,62.62v137.7c0,7.47-6.05,13.53-13.53,13.53h-195.44c-7.46,0-13.53-6.05-13.53-13.53V62.62c0-7.47,6.07-13.53,13.53-13.53h195.44c7.47,0,13.53,6.05,13.53,13.53Z"/>
          <circle class="cls-20" cx="601.83" cy="92.6" r="32.25"/>
          <path class="cls-14" d="m555.18,213.85h-117.26c-7.46,0-13.53-6.05-13.53-13.53v-21.68l51.31-88.88c2.68-4.65,9.39-4.65,12.07,0l38.74,67.1,28.77,49.84c1.39,2.38,1.17,5.09-.12,7.14Z"/>
          <path class="cls-20" d="m605.75,213.85h-112.13l32.91-56.98,17.73-30.71c2.41-4.18,8.45-4.18,10.86,0l50.63,87.69Z"/>
        </g>
      </g>
      <g>
        <g>
          <rect class="cls-35" x="741.72" y="469.71" width="86.45" height="129.91"/>
          <rect class="cls-40" x="828.16" y="469.71" width="33.1" height="129.91" transform="translate(1689.42 1069.34) rotate(180)"/>
          <g>
            <rect class="cls-27" x="832.9" y="474.7" width="24.3" height="4.15"/>
            <rect class="cls-27" x="832.9" y="483.61" width="24.3" height="4.15"/>
            <rect class="cls-27" x="832.9" y="492.51" width="24.3" height="4.15"/>
            <rect class="cls-27" x="832.9" y="501.42" width="24.3" height="4.15"/>
            <rect class="cls-27" x="832.9" y="510.33" width="24.3" height="4.15"/>
            <rect class="cls-27" x="832.9" y="519.23" width="24.3" height="4.15"/>
            <rect class="cls-27" x="832.9" y="528.14" width="24.3" height="4.15"/>
            <rect class="cls-27" x="832.9" y="537.05" width="24.3" height="4.15"/>
            <rect class="cls-27" x="832.9" y="545.96" width="24.3" height="4.15"/>
            <rect class="cls-27" x="832.9" y="554.86" width="24.3" height="4.15"/>
            <rect class="cls-27" x="832.9" y="563.77" width="24.3" height="4.15"/>
            <rect class="cls-27" x="832.9" y="572.68" width="24.3" height="4.15"/>
            <rect class="cls-27" x="832.9" y="581.58" width="24.3" height="4.15"/>
            <rect class="cls-27" x="832.9" y="590.49" width="24.3" height="4.15"/>
          </g>
        </g>
        <g>
          <path class="cls-33" d="m727.67,599.63h43.93s2.46-7.82-2.87-17.52c0,0-3.54,2.84-14.13.92,0,0-4.42,3.75-7.47,5.22-3.07,1.48-20.65,4.94-19.47,11.38Z"/>
          <path class="cls-16" d="m730.74,475.74c2.84,16.93,15.93,74.21,21.56,108.06,10.29.88,15.23-.3,17.85-.91-.51-11.8-1.53-40.03-1.41-52.41.2-20.92,1.18-48.51-8.03-63.65l-30.97,2.44c.19,1.63.36,2.96.51,3.92.15.91.32,1.75.49,2.55Z"/>
          <path class="cls-33" d="m648.21,599.63h43.93s2.46-7.82-2.87-17.52c0,0-3.54,2.84-14.13.92,0,0-4.42,3.75-7.47,5.22-3.07,1.48-20.65,4.94-19.47,11.38Z"/>
          <path class="cls-17" d="m673.87,582.81c8.39,2.08,14.48,1.88,17.35,1.55,2.34-13.6,6.03-43.53,9.35-57.56,5.15-21.81,10.2-51.79,6.69-62.49l-30.46-7.65c-.1.96-2.58,92.74-2.93,126.15Z"/>
          <path class="cls-17" d="m795.1,425.44h0c-.61-6.02-1.32-10.42-1.32-10.42l-34.03,8.33-28.91,6.59c-10.72,2.39-23.66,5.26-35.08,7.84-12.81,2.91-21.31,12.64-18.51,25.46l3.21,15.56c17.91-.24,102.14-8.32,109.34-11.96,8.14-4.11,10.59-18.64,5.29-41.4Z"/>
          <path class="cls-16" d="m845.91,425.44h0c-.61-6.02-3.55-12.48-3.55-12.48l-31.8,10.39-28.91,6.59c-10.72,2.39-23.66,5.26-35.08,7.84-12.81,2.91-21.31,12.64-18.51,25.46l3.21,15.56c17.91-.24,92.79-2.85,109.34-11.96,7.99-4.39,10.59-18.64,5.29-41.4Z"/>
          <path class="cls-19" d="m750.65,376.66s15.12-6.83,19.28.02c2.28,3.75.7,10.71-4.45,13.64-5.16,2.92-34.29,15.24-61.78,22.12,0,0-1.17-3.82-3.07-7.84,0,0,12.33-5.12,24.6-13.73,12.26-8.61,25.43-14.2,25.43-14.2h0Z"/>
          <path class="cls-19" d="m754.43,329.46l-12.96,51.74s1.34,13.08,14.55,6.66c13.21-6.42,21.97-47.64,21.97-47.64l-23.56-10.76Z"/>
          <path class="cls-14" d="m776.35,358.4c-1.6-.39-3.13-.81-4.61-1.25-1.51-.44-2.95-.9-4.31-1.38-12.31-4.22-18.96-9.29-18.96-9.29,3.87-16.82,8.53-28.12,12.68-35.57.11-.18.22-.35.31-.55.11-.18.22-.37.33-.55,2.23-3.7,5.44-6.82,9.01-9.38.37-.26.72-.5,1.09-.76l1.53,27.02.26,2.78,2.67,28.93Z"/>
          <path class="cls-29" d="m776.35,358.4c-1.6-.39-3.13-.81-4.61-1.25-1.51-.44-2.95-.9-4.31-1.38,2.58-18.2,4.92-29.63,4.92-29.63l1.33,3.34,2.67,28.93Z"/>
          <path class="cls-14" d="m852.82,311.68c-.31,8-1.71,20.84-2.93,33.74-.39,4.09-.76,8.2-1.07,12.16-.22,2.47-3.94,15.65-4.09,18-.66,11.28-6.19,19.72-.96,36.89,1.25,4.11,1.57,6.23,1.57,7.92,0,1.18-1.53,2.41-2.14,2.75-2.19,1.27-6.51,2.16-11.74,2.8h-.02c-10.3,1.25-24.2,1.49-32.58,1.49-11.26,0-28.16-1.79-30.3-4.63-1.95-2.6-.15-6.38.77-11.59,4.15-23.53,2.67-35.81,2.41-52.8,0-.42-.02-.85-.02-1.29-.42-26.2-2.16-48.63-.94-56.72.37-.26.72-.5,1.09-.76,1.79-1.22,3.54-2.3,5.23-3.26.15-.07.33-.18.52-.29.52-.29,1.05-.57,1.55-.85.18-.11.39-.2.59-.29,3.81-1.86,9.38-3.85,12.57-4.96.41-.13.77-.26,1.09-.35,3-.18,6.27-.22,9.79-.13,3.06.09,7.74.5,12.83,1.16h.02c5.75.74,12.03,1.82,17.03,3.19,0,0,.06.02.09.04.94.29,7.04,2.58,13.4,9.38,2.12,2.25,4.29,5.01,6.25,8.38Z"/>
          <path class="cls-29" d="m843.78,412.48c1.25,4.11,1.57,6.23,1.57,7.92,0,1.18-1.53,2.41-2.14,2.75-2.19,1.27-6.51,2.16-11.74,2.8,2.16-.26,5.88-3.68,5.88-6.76,0-2.16-2.8-16.75-2.03-26.17.77-9.4,2.3-24.36-.61-36.34-2.93-11.98-5.68-27.73-5.68-27.73l16.42,9.91s2.12,2.97,4.44,6.56c-.39,4.09-.76,8.2-1.07,12.16-.22,2.47-10.28,37.72-5.05,54.9Z"/>
          <g>
            <path class="cls-16" d="m771.54,242.43s1.42,17.17,7.11,18.33c5.69,1.15,4.3-6.14,4.3-6.14l-.8-8.15-10.62-4.03Z"/>
            <path class="cls-19" d="m797.8,304.66c-11.15-1.33-6.98-12.16-5.45-14.65.41-.13,2.32-.72,2.47-.81.02-.02.04-.02.04-.02.37-.3.65-.74.87-1.29,1.09-2.86.59-8.55.55-8.92v-1.05c.18-.68.37-1.33.52-1.94l5.86-4.61,12.4-9.75s-3.3,16.31-.64,26.59c.2.77.61,1.86,1.64,2.47,0,.02.02,0,.02,0,.33.22.74.37,1.23.44,3.04,1.44-1.2,15.7-19.5,13.53Z"/>
            <path class="cls-28" d="m807.63,272s-.1,10.88-11.92,15.89c1.1-2.84.59-8.54.56-8.9l4.95-3.89,6.41-3.1Z"/>
            <path class="cls-19" d="m774.27,244.87s2.58,35.63,12.2,38.66c0,0,12.26,1.15,21.06-10.68,2.54-3.41,5.74-4.18,6.79-8.3,1.7-6.69,4.1-19.03,1.04-26.47-4.36-10.59-40.67-19-41.08,6.79Z"/>
            <path class="cls-16" d="m815.49,232.2c-.16-6.47-6.71-8.89-6.71-8.89-6.52-3.05-20.08-1.74-34.05,1.38-3.28.73-7.39-1.28-9.67.31-2.77,1.92-.01,10.68-.01,10.68,5.39,16.32,25.22,11.01,31.18,9,1.42,4.2,1.23,10.05,4.77,13.06,2.01,1.72,5.51,1.77,9.07,1.17.44.83,2.08,1.57,2.42,2.71,1.12,3.82.96,9.78.93,14.39l1.68-.82c.22-1.25,17.62-42.45.4-42.99Z"/>
            <g>
              <path class="cls-12" d="m784.13,256.87c.5,2.96-.96,5.67-3.26,6.07-2.3.39-4.58-1.69-5.08-4.65-.5-2.96.96-5.68,3.26-6.07,2.3-.39,4.58,1.69,5.08,4.65Z"/>
              <path class="cls-12" d="m795.76,254.7c.5,2.96-.96,5.67-3.26,6.07-2.3.39-4.58-1.69-5.08-4.65-.5-2.96.96-5.68,3.26-6.07,2.3-.39,4.58,1.69,5.08,4.65Z"/>
              <path class="cls-12" d="m784.13,256.87s.51-.83,3.19-.6"/>
              <line class="cls-12" x1="795.86" y1="255.41" x2="805.8" y2="253.82"/>
            </g>
            <path class="cls-19" d="m806.53,266.43c6.84,2.62,8.98-14.22,2.48-14.97-4.93-.57-5.13,6.31-5.13,6.31,0,0-1.26,7.16,2.65,8.66Z"/>
            <g class="cls-41">
              <path class="cls-28" d="m808.78,254c-2.14,1.89-2.2,4.92-1.67,7.52.07.39.17.78.22,1.18-1.72-2.65-1.87-7.25,1.45-8.71h0Z"/>
              <path class="cls-28" d="m809.85,257.2c-1.45.13-2.65,1.21-2.98,2.59,0,0-.68-.24-.68-.24.6-1.45,2.11-2.47,3.67-2.35h0Z"/>
            </g>
          </g>
          <path class="cls-19" d="m872.32,383.48v.02c-3.01,3.49-14.42,6.03-19.91,1.21-1.73-1.54-3.67-5.59-5.59-10.62-4.87-12.85-9.48-32.08-9.48-32.08l25.54-13.05s3.29,14.73,6.12,28.74c0,0,.02.14.08.39.92,4.49,1.78,8.9,2.45,12.68.03.11.04.19.05.3.67,4.52,1.11,9.23.74,12.42Z"/>
          <path class="cls-14" d="m827.7,324.11c2.47,10.26,10.22,29.69,10.22,29.69,5.43.9,12.71-.1,18.75-2.27,6.96-2.5,11.94-7.76,11.94-7.76,0,0-5.14-14.45-9.76-24.83-4.14-9.32-6.63-12.8-8.42-14.65-2.7-2.83-7.05-6.07-10.14-7.54l-12.59,27.35Z"/>
          <path class="cls-14" d="m860,330.81l-14.99-6.47-11.81-30.43s2.16.66,5.01,1.81h.01c.05.03.18.07.38.15.07.03.15.05.22.1,2.55,1.19,12.43,7.02,19.26,28.17.05.18.11.36.16.53.73,2.44,1.26,4.4,1.55,5.41.03.1.05.19.08.3.04.14.07.29.11.42Z"/>
          <g>
            <path class="cls-19" d="m872.32,383.48v.02c-.22,1.87-.74,3.21-1.66,3.69-.15.09-2.24,1.34-2.39,1.44-3.12,1.91-8.79,5.16-15.83,8.19-17.09,7.38-41.91,15.94-55.29,19.87,0,0-1.32-3.78-3.38-7.72,0,0,12.1-5.62,24-14.73,11.91-9.09,29.05-20.14,29.05-20.14l4.33-5.09s15.38-14.16,17.85-11.31c0,0,.02.14.08.39.37,1.48,1.59,6.91,2.45,12.68.03.11.04.19.05.3.67,4.52,1.11,9.23.74,12.42Z"/>
            <path class="cls-19" d="m795.54,408.1s-3.01,1.81-6.07,1.17c-1.7-.36-2.38-1.05-3.63-1.27-1.25-.22-4.59-.63-6.25-1.44-1.65-.81-2.3-.9-2.24.76.06,1.66,3.32,3.09,4.2,3.55.88.46,1.99,1.93,2.11,2.12.12.18-5.44,3.09-6.93,2.5,0,0-.44,1.34-.19,2.08.25.75,1.4,1.01,1.48,1.38.09.37-.26,1.14-.01,1.74.25.6,1.27.6,1.68,1.57.41.97-.04.98.26,1.99.3,1.01,1.59,1.19,1.84,1.71s.11,1.13.66,1.49c.54.36,5.54-1.25,7.36-2.03,1.82-.78,6.7-7.8,12.09-10.19l-6.36-7.13Z"/>
          </g>
          <path class="cls-34" d="m821.07,439.41h-38.86v-3.8h38.86c1.05,0,1.9.85,1.9,1.9h0c0,1.05-.85,1.9-1.9,1.9Z"/>
          <path class="cls-34" d="m800.05,439.41h-97.29c-1.16,0-2.19-.78-2.5-1.9l-19.91-71.68c-.44-1.59.75-3.16,2.4-3.16h94.08c2.19,0,4.12,1.46,4.7,3.57l19.84,71.42c.24.87-.41,1.74-1.32,1.74Z"/>
          <path class="cls-32" d="m796.53,439.41h-97.29c-1.16,0-2.19-.78-2.5-1.9l-19.91-71.68c-.44-1.59.75-3.16,2.4-3.16h94.08c2.19,0,4.12,1.46,4.7,3.57l19.84,71.42c.24.87-.41,1.74-1.32,1.74Z"/>
        </g>
      </g>
      <g>
        <path class="cls-18" d="m410.94,393.1l11.27-11.55s.39-5.15,1-6.24c.61-1.09,2.2-5.11,2.99-5.55.79-.44,2.37,0,2.37,0,0,0,1.57-.53,2.27-.53s2.02.64,2.02.64c0,0,1.68-.11,2.39-.11s.93.2.93.2c0,0,2.72-3.12,4.03-4.18,1.32-1.05,3.33-2.99,3.93-2.98.56,0,.81,1,.4,2.05s-2.19,2.75-2.19,2.75l-5.13,7.78s.88-.35,1.35-.64c.47-.29,3.6-3.22,3.79-3.33.19-.12,1.59-1.05,2.41-.12.82.94-5.38,8.36-6.37,9.35-.99.99-6.69,3.88-6.69,3.88,0,0-6.01,10.82-6.6,11.52-.59.7-14.15-2.93-14.15-2.93Z"/>
        <path class="cls-18" d="m421.55,339.76s-6.29,36.47-12.22,37.31c0,0-23.65.95-28.92-27.74-4.57-24.89,13.76-30.19,22.33-28.29,8.57,1.9,20.65,3.14,18.81,18.72Z"/>
        <path class="cls-18" d="m400.64,371.24s-3.31,4.47-4.48,15.29c0,0-9.85,1.41-18.93-3.27,0,0,4.9-15.26,5.49-31.83"/>
        <path class="cls-16" d="m393.97,314.94c-12.93,2.86-11.89,10.91-11.89,10.91-6.05,1.5-7.35,4-7.3,15.17.05,11.17,4.09,24.59,6.32,25.68,2.23,1.09,14.87,1.14,15.92.76,1.06-.38,5.48-10.63,4.45-12.43-1.03-1.8.05-8.89,2.99-9.16,2.94-.27,2.37,4.29,2.37,4.29l2.42-.53,1.87-4.58c17.08,1.02,21.5-18.45,21.5-18.45-4.1-2.68-25.71-14.5-38.64-11.65Z"/>
        <path class="cls-19" d="m250.48,561.8l13.07,1.89-4.33,15.26-14.16-3.57s-5.76-7.81,2.94-13.58c.42-.28,1.79-.16,2.48,0Z"/>
        <path d="m348.04,522.6l-19.27-58.33s-5.84-2.08-8.83,0c0,0-20.07,10.79-17.93,41.56,1.61,23.2,6.51,48.36,8.5,58.44l-51.4-1.9s-6.34,7.54-2.24,17.35c0,0,64.58,17.37,73.68,18.97,7.39,1.3,15.49,2.31,19.39-1.04,6.88-5.9-1.91-75.06-1.91-75.06Z"/>
        <path class="cls-19" d="m311.34,561.8l13.07,1.89-4.33,15.26-14.16-3.57s-5.76-7.81,2.94-13.58c.42-.28,1.79-.16,2.48,0Z"/>
        <path class="cls-32" d="m306.59,569.8c-.29,3,2.34,5.71,1.85,6.46-.48.75-9.27,15.49-9.27,15.49,0,0,6.63,2.89,5.56,7.06h-16.8s-4.39-3.96-4.28-9.63c0,0,1.14-6.53,4.14-12.3,3-5.78,9.81-18.82,9.81-18.82,0,0,2.07-.84,5.6.11,4.14,1.1,8.13,3.63,8.13,3.63,0,0-4.02.58-4.74,8Z"/>
        <path class="cls-16" d="m441.15,585.41c-4.15-15.47-43.17-81.54-56.37-99.38-27.11-11.77-56.01-21.76-56.01-21.76-11.95,2.85-17.84,26.94-11.06,42.99,4.65,11.01,34.15,38.73,52.22,55.05l-50.13-.06s-5.91,8.83-.55,17.21c0,0,83.38,18.96,90.69,20.03,7.31,1.07,23.72,0,23.72,0,0,0,10.98-1.06,7.49-14.08Z"/>
        <path class="cls-32" d="m245.74,569.8c-.29,3,2.34,5.71,1.86,6.46-.48.75-9.27,15.49-9.27,15.49,0,0,6.63,2.89,5.56,7.06h-16.8s-4.39-3.96-4.28-9.63c0,0,1.14-6.53,4.14-12.3s9.81-18.82,9.81-18.82c0,0,2.07-.84,5.6.11,4.14,1.1,8.13,3.63,8.13,3.63,0,0-4.02.58-4.74,8Z"/>
        <path class="cls-18" d="m503.92,381.87l-26.89,47.3-19.26-19.2-15.94,23.73,4.63,2.22-1.67,1.39s37.16,18.1,41.62,14.11c4.45-3.99,25.2-64.17,25.2-64.17l-7.7-5.38Z"/>
        <path class="cls-32" d="m461.21,412.98s-5.08,21.41-15.23,31.57l-25.98-9.89s-12.05,20.27-23.85,35.82c-4.53,6-6.04,14.45-11.36,15.56-.33-.12-.64-.21-.98-.3-14.44-4.33-35.73.26-53.31-6.27-19.41-7.23-15.64-11.29-15.64-11.29,0,0,11.77-21.22,18.45-43.69,2.98-9.94,5.04-19.15,6.42-26.34,2.46-12.73,12.67-22.69,25.53-24.42.15-.02.28-.05.43-.07,14.72-1.87,53.25,2.68,60.74,5.89,7.49,3.21,34.78,33.44,34.78,33.44Z"/>
        <path class="cls-36" d="m420,434.65s-12.05,20.27-23.85,35.82c-4.53,6-6.04,14.45-11.36,15.56,2.33-.83,6.2-13.1,7.57-15.86,1.39-2.75,3.59-5.51,8.35-15.15,4.75-9.66,11.19-23.81,11.19-23.81l8.09,3.44Z"/>
        <path d="m369.93,562.31c8.73-.82,17.8.32,25.92,3.72-8.54-1.98-17.18-3.07-25.92-3.72h0Z"/>
        <path class="cls-18" d="m524.02,364.46c-.43-.04-3.19,2.17-4.52,3.26l1.53-2.94s2.03-1.96,2.76-3.03c.73-1.08.35-2.15-.23-2.21-.41-.04-2.83,1.88-4.23,3.03l.31-.59s2.03-1.96,2.76-3.03c.73-1.08.35-2.15-.23-2.21-.58-.06-5.24,3.86-5.24,3.86l-2.27,3.04,1.71-3.33s.9-1.1,1.5-2.3c.6-1.2.17-1.57-.17-1.97s-3.47,1.94-4.28,2.87c-.8.94-3.34,4.73-3.54,5.26l-2.62,5.43c-.17-1.57-.43-4.26-.62-5.98-.27-2.47-2.51-3.06-2.58-1.85-.08,1.2-1.33,7.12-1.04,10.32.28,3.21.82,5.31,1.02,7.12s-1.67,5.41-1.67,5.41c0,0,7.48,4.65,8.72,3.26,1.24-1.39,3.87-4.48,5.14-6.56,1.75-2.86,2.93-6.61,2.93-6.61l2.34-5s2.03-1.96,2.76-3.03c.73-1.07.35-2.15-.23-2.21Z"/>
      </g>
      <g>
        <path class="cls-5" d="m953.54,213.85h-87.75c-5.62,0-10.18,4.56-10.18,10.18v20.73c0,5.19,3.88,9.47,8.9,10.1.74.09,1.28.72,1.28,1.46v11.35c0,.66.84.93,1.22.39l8.94-12.5c.28-.39.73-.62,1.2-.62h76.38c5.62,0,10.18-4.56,10.18-10.18v-20.73c0-5.62-4.56-10.18-10.18-10.18Z"/>
        <g>
          <path class="cls-5" d="m879.26,234.37c0,1.85-1.5,3.35-3.35,3.35s-3.35-1.5-3.35-3.35,1.5-3.35,3.35-3.35,3.35,1.5,3.35,3.35Z"/>
          <path class="cls-5" d="m896.14,234.37c0,1.85-1.5,3.35-3.35,3.35s-3.35-1.5-3.35-3.35,1.5-3.35,3.35-3.35,3.35,1.5,3.35,3.35Z"/>
          <path class="cls-5" d="m913.02,234.37c0,1.85-1.5,3.35-3.35,3.35s-3.35-1.5-3.35-3.35,1.5-3.35,3.35-3.35,3.35,1.5,3.35,3.35Z"/>
          <path class="cls-5" d="m929.91,234.37c0,1.85-1.5,3.35-3.35,3.35s-3.35-1.5-3.35-3.35,1.5-3.35,3.35-3.35,3.35,1.5,3.35,3.35Z"/>
          <path class="cls-5" d="m946.79,234.37c0,1.85-1.5,3.35-3.35,3.35s-3.35-1.5-3.35-3.35,1.5-3.35,3.35-3.35,3.35,1.5,3.35,3.35Z"/>
        </g>
      </g>
      <g>
        <path class="cls-5" d="m260.18,304.73h87.75c5.62,0,10.18,4.56,10.18,10.18v20.73c0,5.19-3.88,9.47-8.9,10.1-.74.09-1.28.72-1.28,1.46v11.35c0,.66-.84.93-1.22.39l-8.94-12.5c-.28-.39-.73-.62-1.2-.62h-76.38c-5.62,0-10.18-4.56-10.18-10.18v-20.73c0-5.62,4.56-10.18,10.18-10.18Z"/>
        <g>
          <path class="cls-5" d="m334.46,325.25c0,1.85,1.5,3.35,3.35,3.35s3.35-1.5,3.35-3.35-1.5-3.35-3.35-3.35-3.35,1.5-3.35,3.35Z"/>
          <path class="cls-5" d="m317.58,325.25c0,1.85,1.5,3.35,3.35,3.35s3.35-1.5,3.35-3.35-1.5-3.35-3.35-3.35-3.35,1.5-3.35,3.35Z"/>
          <path class="cls-5" d="m300.7,325.25c0,1.85,1.5,3.35,3.35,3.35s3.35-1.5,3.35-3.35-1.5-3.35-3.35-3.35-3.35,1.5-3.35,3.35Z"/>
          <path class="cls-5" d="m283.82,325.25c0,1.85,1.5,3.35,3.35,3.35s3.35-1.5,3.35-3.35-1.5-3.35-3.35-3.35-3.35,1.5-3.35,3.35Z"/>
          <path class="cls-5" d="m266.93,325.25c0,1.85,1.5,3.35,3.35,3.35s3.35-1.5,3.35-3.35-1.5-3.35-3.35-3.35-3.35,1.5-3.35,3.35Z"/>
        </g>
      </g>
      <g>
        <path class="cls-1" d="m790.11,166.03h-159.93c-8.82,0-15.97-7.15-15.97-15.97h0c0-8.82,7.15-15.97,15.97-15.97h159.93c8.82,0,15.97,7.15,15.97,15.97h0c0,8.82-7.15,15.97-15.97,15.97Z"/>
        <g>
          <path class="cls-2" d="m787.77,148.96c0,4.69-3.8,8.49-8.49,8.49s-8.49-3.8-8.49-8.49,3.8-8.49,8.49-8.49,8.49,3.8,8.49,8.49Z"/>
          <line class="cls-3" x1="785.28" y1="154.96" x2="789.97" y2="159.65"/>
        </g>
      </g>
      <g>
        <g>
          <rect class="cls-31" x="494.86" y="534.67" width="65.73" height="65.73" rx="7.71" ry="7.71"/>
          <rect class="cls-40" x="482.88" y="534.67" width="65.73" height="65.73" rx="7.71" ry="7.71"/>
          <path class="cls-14" d="m507.98,555.13l18.87,10.89c1.16.67,1.16,2.35,0,3.03l-18.87,10.89c-1.16.67-2.62-.17-2.62-1.51v-21.79c0-1.34,1.46-2.19,2.62-1.51Z"/>
        </g>
        <g>
          <rect class="cls-31" x="894.77" y="514.47" width="85.92" height="85.92" rx="10.08" ry="10.08"/>
          <rect class="cls-40" x="879.12" y="514.47" width="85.92" height="85.92" rx="10.08" ry="10.08"/>
          <path class="cls-14" d="m932.4,535.55c0,5.7-4.62,10.32-10.32,10.32s-10.32-4.62-10.32-10.32,4.62-10.32,10.32-10.32,10.32,4.62,10.32,10.32Z"/>
          <path class="cls-14" d="m943.6,570.51v15.24c0,1.38-1.12,2.49-2.49,2.49h-38.05c-1.38,0-2.49-1.12-2.49-2.49v-15.24c0-11.89,9.63-21.52,21.52-21.52h0c11.89,0,21.52,9.63,21.52,21.52Z"/>
        </g>
        <g>
          <path class="cls-20" d="m729.93,184.43h-33.78c-1.4,0-2.54-1.14-2.54-2.54h0c0-1.4,1.14-2.54,2.54-2.54h33.78c1.4,0,2.54,1.14,2.54,2.54h0c0,1.4-1.14,2.54-2.54,2.54Z"/>
          <path class="cls-20" d="m763.73,184.43h-24.45c-1.4,0-2.54-1.14-2.54-2.54h0c0-1.4,1.14-2.54,2.54-2.54h24.45c1.4,0,2.54,1.14,2.54,2.54h0c0,1.4-1.14,2.54-2.54,2.54Z"/>
          <path class="cls-20" d="m710.5,195.59h-14.35c-1.4,0-2.54-1.14-2.54-2.54h0c0-1.4,1.14-2.54,2.54-2.54h14.35c1.4,0,2.54,1.14,2.54,2.54h0c0,1.4-1.14,2.54-2.54,2.54Z"/>
          <path class="cls-20" d="m763.73,195.59h-44.7c-1.4,0-2.54-1.14-2.54-2.54h0c0-1.4,1.14-2.54,2.54-2.54h44.7c1.4,0,2.54,1.14,2.54,2.54h0c0,1.4-1.14,2.54-2.54,2.54Z"/>
          <path class="cls-20" d="m740.68,206.75h-44.53c-1.4,0-2.54-1.14-2.54-2.54h0c0-1.4,1.14-2.54,2.54-2.54h44.53c1.4,0,2.54,1.14,2.54,2.54h0c0,1.4-1.14,2.54-2.54,2.54Z"/>
          <path class="cls-20" d="m763.73,206.75h-14.35c-1.4,0-2.54-1.14-2.54-2.54h0c0-1.4,1.14-2.54,2.54-2.54h14.35c1.4,0,2.54,1.14,2.54,2.54h0c0,1.4-1.14,2.54-2.54,2.54Z"/>
        </g>
        <g>
          <rect class="cls-31" x="177.91" y="371.53" width="130.57" height="72.17" rx="3.82" ry="3.82"/>
          <line class="cls-11" x1="183.46" y1="381.28" x2="302.93" y2="381.28"/>
          <circle class="cls-14" cx="299.78" cy="376.32" r="1.45"/>
          <circle class="cls-14" cx="292.24" cy="376.32" r="1.45"/>
          <circle class="cls-14" cx="284.69" cy="376.32" r="1.45"/>
          <g>
            <g>
              <path class="cls-22" d="m205.73,391h-20.27c-1.1,0-2-.89-2-2h0c0-1.1.89-2,2-2h20.27c1.1,0,2,.89,2,2h0c0,1.1-.89,2-2,2Z"/>
              <path class="cls-22" d="m205.73,400.23h-20.27c-1.1,0-2-.89-2-2h0c0-1.1.89-2,2-2h20.27c1.1,0,2,.89,2,2h0c0,1.1-.89,2-2,2Z"/>
              <path class="cls-22" d="m205.73,409.46h-20.27c-1.1,0-2-.89-2-2h0c0-1.1.89-2,2-2h20.27c1.1,0,2,.89,2,2h0c0,1.1-.89,2-2,2Z"/>
              <path class="cls-22" d="m205.73,418.69h-20.27c-1.1,0-2-.89-2-2h0c0-1.1.89-2,2-2h20.27c1.1,0,2,.89,2,2h0c0,1.1-.89,2-2,2Z"/>
              <path class="cls-22" d="m205.73,427.93h-20.27c-1.1,0-2-.89-2-2h0c0-1.1.89-2,2-2h20.27c1.1,0,2,.89,2,2h0c0,1.1-.89,2-2,2Z"/>
              <path class="cls-22" d="m205.73,437.16h-20.27c-1.1,0-2-.89-2-2h0c0-1.1.89-2,2-2h20.27c1.1,0,2,.89,2,2h0c0,1.1-.89,2-2,2Z"/>
            </g>
            <g>
              <path class="cls-38" d="m300.94,391h-87.37c-1.1,0-2-.89-2-2h0c0-1.1.89-2,2-2h87.37c1.1,0,2,.89,2,2h0c0,1.1-.89,2-2,2Z"/>
              <path class="cls-38" d="m300.94,400.23h-87.37c-1.1,0-2-.89-2-2h0c0-1.1.89-2,2-2h87.37c1.1,0,2,.89,2,2h0c0,1.1-.89,2-2,2Z"/>
              <path class="cls-38" d="m300.94,409.46h-87.37c-1.1,0-2-.89-2-2h0c0-1.1.89-2,2-2h87.37c1.1,0,2,.89,2,2h0c0,1.1-.89,2-2,2Z"/>
              <path class="cls-38" d="m300.94,418.69h-87.37c-1.1,0-2-.89-2-2h0c0-1.1.89-2,2-2h87.37c1.1,0,2,.89,2,2h0c0,1.1-.89,2-2,2Z"/>
              <path class="cls-38" d="m300.94,427.93h-87.37c-1.1,0-2-.89-2-2h0c0-1.1.89-2,2-2h87.37c1.1,0,2,.89,2,2h0c0,1.1-.89,2-2,2Z"/>
              <path class="cls-38" d="m300.94,437.16h-87.37c-1.1,0-2-.89-2-2h0c0-1.1.89-2,2-2h87.37c1.1,0,2,.89,2,2h0c0,1.1-.89,2-2,2Z"/>
            </g>
          </g>
        </g>
        <g>
          <circle class="cls-9" cx="862.05" cy="54.15" r="53.75" transform="translate(608.55 879.86) rotate(-76.53)"/>
          <circle class="cls-37" cx="862.05" cy="54.15" r="46.73" transform="translate(51.81 353.44) rotate(-23.87)"/>
          <path class="cls-14" d="m866.31,54.15c0,2.35-1.9,4.25-4.25,4.25s-4.25-1.9-4.25-4.25,1.9-4.25,4.25-4.25,4.25,1.9,4.25,4.25Z"/>
          <path class="cls-14" d="m861.59,53.31h0c-.64.36-1.45.12-1.81-.52l-13.74-24.79c-.36-.64-.12-1.45.52-1.81h0c.64-.36,1.45-.12,1.81.52l13.74,24.79c.36.64.12,1.45-.52,1.81Z"/>
          <path class="cls-14" d="m862.73,54.82h0c.52-.52,1.36-.52,1.88,0l11.89,11.89c.52.52.52,1.36,0,1.88h0c-.52.52-1.36.52-1.88,0l-11.89-11.89c-.52-.52-.52-1.36,0-1.88Z"/>
          <g>
            <line class="cls-8" x1="862.34" y1="16.74" x2="862.34" y2="11.37"/>
            <line class="cls-8" x1="899.46" y1="54.43" x2="904.83" y2="54.43"/>
            <line class="cls-8" x1="861.77" y1="91.55" x2="861.77" y2="96.93"/>
            <line class="cls-8" x1="824.65" y1="53.86" x2="819.28" y2="53.86"/>
          </g>
          <g class="cls-41">
            <line class="cls-6" x1="843.6" y1="21.61" x2="840.91" y2="16.96"/>
            <line class="cls-6" x1="894.59" y1="35.69" x2="899.24" y2="33"/>
            <line class="cls-6" x1="880.51" y1="86.68" x2="883.2" y2="91.34"/>
            <line class="cls-6" x1="829.52" y1="72.6" x2="824.86" y2="75.29"/>
          </g>
          <g class="cls-41">
            <line class="cls-6" x1="829.8" y1="35.2" x2="825.15" y2="32.51"/>
            <line class="cls-6" x1="881" y1="21.9" x2="883.69" y2="17.24"/>
            <line class="cls-6" x1="894.3" y1="73.1" x2="898.96" y2="75.78"/>
            <line class="cls-6" x1="843.1" y1="86.4" x2="840.42" y2="91.05"/>
          </g>
        </g>
        <g>
          <rect class="cls-31" x="148.56" y="233.98" width="90.67" height="90.67" rx="9.57" ry="9.57"/>
          <rect class="cls-7" x="141.53" y="226.12" width="90.67" height="90.67" rx="7.67" ry="7.67"/>
          <g>
            <g>
              <path class="cls-30" d="m202.57,261.08h-.47v-5.19c0-8.53-6.93-15.46-15.46-15.46s-15.46,6.94-15.46,15.46v5.19h-.1c-2.4,0-4.34,1.94-4.34,4.34v19.57c0,2.4,1.94,4.34,4.34,4.34h31.5c2.4,0,4.34-1.94,4.34-4.34v-19.57c0-2.4-1.94-4.34-4.34-4.34Zm-27.48-5.19c0-6.37,5.18-11.54,11.54-11.54s11.54,5.18,11.54,11.54v5.19h-23.09v-5.19Z"/>
              <path class="cls-21" d="m191.92,271.14c0-3.13-2.84-5.59-6.08-4.94-1.91.38-3.49,1.95-3.89,3.85-.48,2.3.61,4.4,2.39,5.44.36.21.57.61.46,1.01l-.88,3.24c-.52,1.93.93,3.82,2.92,3.82s3.45-1.9,2.92-3.82l-.87-3.21c-.11-.41.1-.81.47-1.02,1.53-.87,2.56-2.5,2.56-4.38Z"/>
            </g>
            <path class="cls-30" d="m205.05,296.19h-36.45c-1.03,0-1.86-.83-1.86-1.86h0c0-1.03.83-1.86,1.86-1.86h36.45c1.03,0,1.86.83,1.86,1.86h0c0,1.03-.83,1.86-1.86,1.86Z"/>
            <path class="cls-30" d="m205.05,302.5h-36.45c-1.03,0-1.86-.83-1.86-1.86h0c0-1.03.83-1.86,1.86-1.86h36.45c1.03,0,1.86.83,1.86,1.86h0c0,1.03-.83,1.86-1.86,1.86Z"/>
          </g>
        </g>
        <g>
          <g>
            <path class="cls-31" d="m899.21,377.85h42.11c3.11,0,5.63,2.52,5.63,5.63v42.11c0,3.11-2.52,5.63-5.63,5.63h-42.11c-3.11,0-5.63-2.52-5.63-5.63v-42.11c0-3.11,2.52-5.63,5.63-5.63Z"/>
            <rect class="cls-7" x="889.43" y="373.23" width="53.38" height="53.38" rx="4.51" ry="4.51"/>
          </g>
          <g>
            <path class="cls-14" d="m905.34,415.86c-.15,0-.3-.02-.45-.06-.88-.25-1.39-1.16-1.14-2.04l8.07-28.58c.25-.88,1.17-1.4,2.04-1.14.88.25,1.39,1.16,1.14,2.04l-8.07,28.58c-.21.73-.87,1.2-1.59,1.2Z"/>
            <path class="cls-14" d="m918.84,415.86c-.15,0-.3-.02-.45-.06-.88-.25-1.39-1.16-1.14-2.04l8.07-28.58c.25-.88,1.17-1.4,2.04-1.14.88.25,1.39,1.16,1.14,2.04l-8.07,28.58c-.21.73-.87,1.2-1.59,1.2Z"/>
            <path class="cls-14" d="m930.41,395.1h-28.58c-.91,0-1.65-.74-1.65-1.65s.74-1.65,1.65-1.65h28.58c.91,0,1.65.74,1.65,1.65s-.74,1.65-1.65,1.65Z"/>
            <path class="cls-14" d="m930.41,408.15h-28.58c-.91,0-1.65-.74-1.65-1.65s.74-1.65,1.65-1.65h28.58c.91,0,1.65.74,1.65,1.65s-.74,1.65-1.65,1.65Z"/>
          </g>
        </g>
        <g>
          <path class="cls-20" d="m293.22,261.67h-20.67c-1.25,0-2.27-1.01-2.27-2.27h0c0-1.25,1.01-2.27,2.27-2.27h20.67c1.25,0,2.27,1.01,2.27,2.27h0c0,1.25-1.01,2.27-2.27,2.27Z"/>
          <path class="cls-20" d="m314.04,271.73h-41.49c-1.25,0-2.27-1.01-2.27-2.27h0c0-1.25,1.01-2.27,2.27-2.27h41.49c1.25,0,2.27,1.01,2.27,2.27h0c0,1.25-1.01,2.27-2.27,2.27Z"/>
          <path class="cls-20" d="m277.45,281.79h-4.9c-1.25,0-2.27-1.01-2.27-2.27h0c0-1.25,1.01-2.27,2.27-2.27h4.9c1.25,0,2.27,1.01,2.27,2.27h0c0,1.25-1.01,2.27-2.27,2.27Z"/>
          <path class="cls-20" d="m314.04,281.79h-28.89c-1.25,0-2.27-1.01-2.27-2.27h0c0-1.25,1.01-2.27,2.27-2.27h28.89c1.25,0,2.27,1.01,2.27,2.27h0c0,1.25-1.01,2.27-2.27,2.27Z"/>
          <path class="cls-20" d="m314.04,261.67h-12.53c-1.25,0-2.27-1.01-2.27-2.27h0c0-1.25,1.01-2.27,2.27-2.27h12.53c1.25,0,2.27,1.01,2.27,2.27h0c0,1.25-1.01,2.27-2.27,2.27Z"/>
        </g>
        <path class="cls-14" d="m197.49,570.77c-2.69,0-5.21.74-7.37,2.02-.87-7.72-7.41-13.72-15.36-13.72-8.54,0-15.46,6.92-15.46,15.46,0,.57.03,1.14.09,1.69-.71-.13-1.44-.21-2.19-.21-6.52,0-11.8,5.28-11.8,11.8s5.28,11.8,11.8,11.8h40.27c7.97,0,14.43-6.46,14.43-14.43s-6.46-14.43-14.43-14.43Z"/>
      </g>
      <g>
        <path class="cls-30" d="m95.07,508.8c-.39-2.16-.34-4.37.21-6.49,1.82-7.11,3.9-20.5-.73-34.95-7.72-24.12-39.03-45.48-39.03-45.48,0,0,8.5,35.59,15.48,50.75,5.11,11.1,14.06,23.72,19.03,30.37,1.38,1.84,2.32,3.97,2.73,6.24,5.06,28.01,4.33,49.69,4.32,50.02l2.35.09c.01-.34.76-22.24-4.36-50.54Z"/>
        <path class="cls-24" d="m120.03,486.13c6.22-19.66,9.11-42.82,9.11-42.82,0,0-28.07,23.16-30.37,41.08-1.41,10.98.34,19.78,1.91,24.96.67,2.2.91,4.5.66,6.79-2.84,26.37-.62,46.59-.58,46.89l2.11-.24c-.03-.3-2.1-19.1.33-44.02.33-3.41,1.71-6.64,3.87-9.3,4.02-4.96,9.76-13.25,12.95-23.33Z"/>
        <path class="cls-30" d="m148.56,442.39s-30.25,11.23-38.16,35.92c-4.81,15.03-2.54,28.93-.66,36.12.53,2.02.5,4.13,0,6.15-7.09,28.42-7.19,57.84-7.19,58.23h2.41c0-.38.11-29.1,6.95-56.97.68-2.77,1.89-5.37,3.59-7.66,5.16-6.95,13.94-19.45,19.02-30.48,7.15-15.52,14.05-41.31,14.05-41.31Z"/>
        <path class="cls-24" d="m95.19,546.59c-.75-10.34-3.57-19.65-6.99-27.45-.68-1.56-.93-3.27-.71-4.97.42-3.26.6-8.33-.71-14.76-2.45-12.12-18.54-38.3-41.82-39.83,0,0,8.03,12.92,12.17,23.72,5.23,13.67,12.7,27.98,25.08,33.47,2.18.97,3.88,2.77,4.79,4.97,2.98,7.23,5.38,15.69,6.06,25l2.12-.15Z"/>
        <path class="cls-30" d="m79.45,599.63h38.43l9.97-60.93c.44-2.7-1.64-5.15-4.37-5.15h-49.62c-2.73,0-4.81,2.45-4.37,5.15l9.97,60.93Z"/>
      </g>
      <line class="cls-10" x1=".56" y1="599.63" x2="1075.78" y2="599.63"/>
    </g>
  </g>
</svg>